<?xml version="1.0" encoding="UTF-8"?> <score-partwise version="4.0"> <work> <work-title>132. HAOGÖ NDRA'UGÖ TÖDÖGU</work-title> </work> <part-list> <score-part id="P1"> <part-name>Vocal</part-name> </score-part> </part-list> <part id="P1"> <measure number="1"> <attributes> <divisions>1</divisions> <key> <fifths>-1</fifths> </key> <time> <beats>4</beats> <beat-type>4</beat-type> </time> <clef> <sign>G</sign> <line>2</line> </clef> </attributes> <note> <pitch> <step>A</step> <octave>4</octave> </pitch> <duration>1</duration> <type>quarter</type> <lyric number="1"><syllabic>begin</syllabic><text>Hao</text></lyric> <lyric number="2"><syllabic>begin</syllabic><text>Ha</text></lyric> </note> <note> <pitch> <step>G</step> <octave>4</octave> </pitch> <duration>1</duration> <type>quarter</type> <lyric number="1"><syllabic>end</syllabic><text>gö</text></lyric> <lyric number="2"><syllabic>end</syllabic><text>ga</text></lyric> </note> <note> <pitch> <step>F</step> <octave>4</octave> </pitch> <duration>1</duration> <type>quarter</type> <lyric number="1"><syllabic>begin</syllabic><text>ndra</text></lyric> <lyric number="2"><syllabic>begin</syllabic><text>Ye</text></lyric> </note> <note> <pitch> <step>G</step> <octave>4</octave> </pitch> <duration>1</duration> <type>quarter</type> <lyric number="1"><syllabic>middle</syllabic><text>u</text></lyric> <lyric number="2"><syllabic>end</syllabic><text>su</text></lyric> </note> </measure> <measure number="2"> <note> <pitch> <step>A</step> <octave>4</octave> </pitch> <duration>1</duration> <type>quarter</type> <lyric number="1"><syllabic>end</syllabic><text>gö</text></lyric> <lyric number="2"><syllabic>single</syllabic><text>ae</text></lyric> </note> <note> <pitch> <step>C</step> <octave>5</octave> </pitch> <duration>1</duration> <type>quarter</type> <lyric number="1"><syllabic>begin</syllabic><text>tö</text></lyric> <lyric number="2"><syllabic>begin</syllabic><text>ta</text></lyric> </note> <note> <pitch> <step>B</step> <alter>-1</alter> <octave>4</octave> </pitch> <duration>2</duration> <type>half</type> <lyric number="1"><syllabic>middle</syllabic><text>dö</text></lyric> <lyric number="2"><syllabic>middle</syllabic><text>hö</text></lyric> </note> </measure> <measure number="3"> <note> <pitch> <step>A</step> <octave>4</octave> </pitch> <duration>2</duration> <type>half</type> <notations><articulations><breath-mark/></articulations></notations> <lyric number="1"><syllabic>end</syllabic><text>gu</text></lyric> <lyric number="2"><syllabic>end</syllabic><text>gö</text></lyric> </note> <note> <pitch> <step>C</step> <octave>5</octave> </pitch> <duration>1</duration> <type>quarter</type> <lyric number="1"><syllabic>begin</syllabic><text>röi</text></lyric> <lyric number="2"><syllabic>begin</syllabic><text>la</text></lyric> </note> <note> <pitch> <step>A</step> <octave>4</octave> </pitch> <duration>1</duration> <type>quarter</type> <lyric number="1"><syllabic>middle</syllabic><text>ae</text></lyric> <lyric number="2"><syllabic>end</syllabic><text>la</text></lyric> </note> </measure> <measure number="4"> <note> <pitch> <step>B</step> <alter>-1</alter> <octave>4</octave> </pitch> <duration>1</duration> <type>quarter</type> <lyric number="1"><syllabic>middle</syllabic><text>zi</text></lyric> <lyric number="2"><syllabic>begin</syllabic><text>Ni</text></lyric> </note> <note> <pitch> <step>A</step> <octave>4</octave> </pitch> <duration>1</duration> <type>quarter</type> <lyric number="1"><syllabic>end</syllabic><text>lö</text></lyric> <lyric number="2"><syllabic>end</syllabic><text>a</text></lyric> </note> <note> <pitch> <step>F</step> <octave>4</octave> </pitch> <duration>1</duration> <type>quarter</type> <lyric number="1"><syllabic>begin</syllabic><text>sö</text></lyric> <lyric number="2"><syllabic>begin</syllabic><text>tö</text></lyric> </note> <note> <pitch> <step>A</step> <octave>4</octave> </pitch> <duration>1</duration> <type>quarter</type> <lyric number="1"><syllabic>end</syllabic><text>khi</text></lyric> <lyric number="2"><syllabic>end</syllabic><text>rö</text></lyric> </note> </measure> <measure number="5"> <note> <pitch> <step>G</step> <octave>4</octave> </pitch> <duration>2</duration> <type>half</type> <lyric number="1"><syllabic>begin</syllabic><text>fe</text></lyric> <lyric number="2"><syllabic>begin</syllabic><text>tö</text></lyric> </note> <note> <pitch> <step>F</step> <octave>4</octave> </pitch> <duration>2</duration> <type>half</type> <lyric number="1"><syllabic>end</syllabic><text>fu.</text></lyric> <lyric number="2"><syllabic>end</syllabic><text>dö.</text></lyric> </note> <barline location="right"> <bar-style>light-heavy</bar-style> <repeat direction="backward"/> </barline> </measure> <measure number="6"> <note> <pitch> <step>C</step> <octave>5</octave> </pitch> <duration>1</duration> <type>quarter</type> <lyric><syllabic>begin</syllabic><text>So</text></lyric> </note> <note> <pitch> <step>C</step> <octave>5</octave> </pitch> <duration>1</duration> <type>quarter</type> <lyric><syllabic>middle</syllabic><text>a</text></lyric> </note> <note> <pitch> <step>F</step> <octave>5</octave> </pitch> <duration>1</duration> <type>quarter</type> <lyric><syllabic>middle</syllabic><text>ya</text></lyric> </note> <note> <pitch> <step>E</step> <octave>5</octave> </pitch> <duration>1</duration> <type>quarter</type> <lyric><syllabic>end</syllabic><text>i</text></lyric> </note> </measure> <measure number="7"> <note> <pitch> <step>D</step> <octave>5</octave> </pitch> <duration>1</duration> <type>quarter</type> <lyric><syllabic>begin</syllabic><text>kao</text></lyric> </note> <note> <pitch> <step>E</step> <octave>5</octave> </pitch> <duration>1</duration> <type>quarter</type> <lyric><syllabic>middle</syllabic><text>ni</text></lyric> </note> <note> <pitch> <step>D</step> <octave>5</octave> </pitch> <duration>2</duration> <type>half</type> <lyric><syllabic>middle</syllabic><text>i</text></lyric> </note> </measure> <measure number="8"> <note> <pitch> <step>C</step> <octave>6</octave> </pitch> <duration>2</duration> <type>half</type> <notations><articulations><breath-mark/></articulations></notations> <lyric><syllabic>end</syllabic><text>ta</text></lyric> </note> <note> <pitch> <step>C</step> <octave>5</octave> </pitch> <duration>1</duration> <type>quarter</type> <lyric><syllabic>single</syllabic><text>da</text></lyric> </note> <note> <pitch> <step>C</step> <octave>5</octave> </pitch> <duration>1</duration> <type>quarter</type> <lyric><syllabic>single</syllabic><text>möi</text></lyric> </note> </measure> <measure number="9"> <note> <pitch> <step>D</step> <octave>5</octave> </pitch> <duration>1</duration> <type>quarter</type> <lyric><syllabic>begin</syllabic><text>i</text></lyric> </note> <note> <pitch> <step>E</step> <octave>5</octave> </pitch> <duration>1</duration> <type>quarter</type> <lyric><syllabic>middle</syllabic><text>ta</text></lyric> </note> <note> <pitch> <step>D</step> <octave>5</octave> </pitch> <duration>1</duration> <type>quarter</type> <lyric><syllabic>middle</syllabic><text>to</text></lyric> </note> <note> <pitch> <step>E</step> <octave>5</octave> </pitch> <duration>1</duration> <type>quarter</type> <lyric><syllabic>end</syllabic><text>me</text></lyric> </note> </measure> <measure number="10"> <note> <pitch> <step>D</step> <octave>5</octave> </pitch> <duration>2</duration> <type>half</type> <lyric><syllabic>begin</syllabic><text>Ni</text></lyric> </note> <note> <pitch> <step>C</step> <octave>5</octave> </pitch> <duration>2</duration> <type>half</type> <notations><articulations><breath-mark/></articulations></notations> <lyric><syllabic>end</syllabic><text>a</text></lyric> </note> </measure> <measure number="11"> <note> <pitch> <step>G</step> <octave>4</octave> </pitch> <duration>1</duration> <type>quarter</type> <lyric><syllabic>begin</syllabic><text>Oi</text></lyric> </note> <note> <pitch> <step>A</step> <octave>4</octave> </pitch> <duration>1</duration> <type>quarter</type> <lyric><syllabic>middle</syllabic><text>so</text></lyric> </note> <note> <pitch> <step>B</step> <alter>-1</alter> <octave>4</octave> </pitch> <duration>1</duration> <type>quarter</type> <lyric><syllabic>middle</syllabic><text>wa</text></lyric> </note> <note> <pitch> <step>B</step> <alter>-1</alter> <octave>4</octave> </pitch> <duration>1</duration> <type>quarter</type> <lyric><syllabic>end</syllabic><text>e</text></lyric> </note> </measure> <measure number="12"> <note> <pitch> <step>A</step> <octave>4</octave> </pitch> <duration>1</duration> <type>quarter</type> <lyric><syllabic>begin</syllabic><text>bu</text></lyric> </note> <note> <pitch> <step>A</step> <octave>4</octave> </pitch> <duration>1</duration> <type>quarter</type> <lyric><syllabic>end</syllabic><text>a</text></lyric> </note> <note> <pitch> <step>G</step> <octave>4</octave> </pitch> <duration>1</duration> <type>quarter</type> <lyric><syllabic>begin</syllabic><text>dö</text></lyric> </note> <note> <pitch> <step>G</step> <octave>5</octave> </pitch> <duration>1</duration> <type>quarter</type> <notations><articulations><breath-mark/></articulations></notations> <lyric><syllabic>end</syllabic><text>dö</text></lyric> </note> </measure> <measure number="13"> <note> <pitch> <step>C</step> <octave>5</octave> </pitch> <duration>1</duration> <type>quarter</type> <lyric><syllabic>begin</syllabic><text>ba</text></lyric> </note> <note> <pitch> <step>A</step> <octave>4</octave> </pitch> <duration>1</duration> <type>quarter</type> <lyric><syllabic>middle</syllabic><text>da</text></lyric> </note> <note> <pitch> <step>B</step> <alter>-1</alter> <octave>4</octave> </pitch> <duration>1</duration> <type>quarter</type> <lyric><syllabic>end</syllabic><text>ö</text></lyric> </note> <note> <pitch> <step>A</step> <octave>4</octave> </pitch> <duration>1</duration> <type>quarter</type> <lyric><syllabic>begin</syllabic><text>I'</text></lyric> </note> </measure> <measure number="14"> <note> <pitch> <step>F</step> <octave>4</octave> </pitch> <duration>1</duration> <type>quarter</type> <lyric><syllabic>middle</syllabic><text>o</text></lyric> </note> <note> <pitch> <step>A</step> <octave>4</octave> </pitch> <duration>1</duration> <type>quarter</type> <lyric><syllabic>middle</syllabic><text>ro</text></lyric> </note> <note> <pitch> <step>G</step> <octave>4</octave> </pitch> <duration>2</duration> <type>half</type> <lyric><syllabic>end</syllabic><text>ma</text></lyric> </note> </measure> <measure number="15"> <note> <pitch> <step>F</step> <octave>4</octave> </pitch> <duration>4</duration> <type>whole</type> <lyric><syllabic>single</syllabic><text>ö.</text></lyric> </note> <barline location="right"> <bar-style>light-heavy</bar-style> </barline> </measure> </part> </score-partwise>