<?xml version="1.0" encoding="UTF-8"?>

<score-partwise version="4.0">
<work>
<work-title>15. DATASUNO LOWALANGI DOZI ITA</work-title>
</work>
<part-list>
<score-part id="P1">
<part-name>Vocal</part-name>
</score-part>
</part-list>
<part id="P1">
<measure number="1">
<attributes>
<divisions>2</divisions>
<key>
<fifths>0</fifths>
</key>
<time>
<beats>4</beats>
<beat-type>4</beat-type>
</time>
<clef>
<sign>G</sign>
<line>2</line>
</clef>
</attributes>
<note>
<pitch>
<step>C</step>
<octave>5</octave>
</pitch>
<duration>3</duration>
<type>quarter</type>
<dot/>
<lyric>
<text>Da-</text>
</lyric>
</note>
<note>
<pitch>
<step>D</step>
<octave>5</octave>
</pitch>
<duration>1</duration>
<type>eighth</type>
<lyric>
<text>ta-</text>
</lyric>
</note>
<note>
<pitch>
<step>E</step>
<octave>5</octave>
</pitch>
<duration>2</duration>
<type>quarter</type>
<lyric>
<text>su-</text>
</lyric>
</note>
<note>
<pitch>
<step>E</step>
<octave>5</octave>
</pitch>
<duration>2</duration>
<type>quarter</type>
<lyric>
<text>no</text>
</lyric>
</note>
</measure>
<measure number="2">
<note>
<pitch>
<step>F</step>
<octave>5</octave>
</pitch>
<duration>2</duration>
<type>quarter</type>
<lyric>
<text>Lo-</text>
</lyric>
</note>
<note>
<pitch>
<step>E</step>
<octave>5</octave>
</pitch>
<duration>2</duration>
<type>quarter</type>
<lyric>
<text>wa-</text>
</lyric>
</note>
<note>
<pitch>
<step>E</step>
<octave>5</octave>
</pitch>
<duration>2</duration>
<type>quarter</type>
<lyric>
<text>la-</text>
</lyric>
</note>
<note>
<pitch>
<step>D</step>
<octave>5</octave>
</pitch>
<duration>2</duration>
<type>quarter</type>
<lyric>
<text>ngi,</text>
</lyric>
</note>
</measure>
<measure number="3">
<note>
<pitch>
<step>B</step>
<octave>4</octave>
</pitch>
<duration>3</duration>
<type>quarter</type>
<dot/>
<lyric>
<text>do</text>
</lyric>
</note>
<note>
<pitch>
<step>C</step>
<octave>5</octave>
</pitch>
<duration>1</duration>
<type>eighth</type>
<lyric>
<text>zi</text>
</lyric>
</note>
<note>
<pitch>
<step>D</step>
<octave>5</octave>
</pitch>
<duration>2</duration>
<type>quarter</type>
<lyric>
<text>i'</text>
</lyric>
</note>
<note>
<pitch>
<step>G</step>
<octave>5</octave>
</pitch>
<duration>2</duration>
<type>quarter</type>
<lyric>
<text>ta</text>
</lyric>
</note>
</measure>
<measure number="4">
<note>
<pitch>
<step>G</step>
<octave>5</octave>
</pitch>
<duration>2</duration>
<type>quarter</type>
<lyric>
<text>ba</text>
</lyric>
</note>
<note>
<pitch>
<step>F</step>
<alter>1</alter>
<octave>5</octave>
</pitch>
<duration>2</duration>
<type>quarter</type>
<accidental>sharp</accidental>
<lyric>
<text>da'</text>
</lyric>
</note>
<note>
<pitch>
<step>G</step>
<octave>5</octave>
</pitch>
<duration>4</duration>
<type>half</type>
<lyric>
<text>a.</text>
</lyric>
</note>
<barline location="right">
<bar-style>light-heavy</bar-style>
<repeat direction="backward"/>
</barline>
</measure>
<measure number="5">
<note>
<pitch>
<step>F</step>
<octave>5</octave>
</pitch>
<duration>3</duration>
<type>quarter</type>
<dot/>
<lyric>
<text>Fa-</text>
</lyric>
</note>
<note>
<pitch>
<step>E</step>
<octave>5</octave>
</pitch>
<duration>1</duration>
<type>eighth</type>
<lyric>
<text>röi</text>
</lyric>
</note>
<note>
<pitch>
<step>D</step>
<octave>5</octave>
</pitch>
<duration>2</duration>
<type>quarter</type>
<lyric>
<text>khö</text>
</lyric>
</note>
<note>
<pitch>
<step>D</step>
<octave>5</octave>
</pitch>
<duration>2</duration>
<type>quarter</type>
<lyric>
<text>da</text>
</lyric>
</note>
</measure>
<measure number="6">
<note>
<pitch>
<step>E</step>
<octave>5</octave>
</pitch>
<duration>2</duration>
<type>quarter</type>
<lyric>
<text>na-</text>
</lyric>
</note>
<note>
<pitch>
<step>F</step>
<octave>5</octave>
</pitch>
<duration>2</duration>
<type>quarter</type>
<lyric>
<text>wö-</text>
</lyric>
</note>
<note>
<pitch>
<step>G</step>
<octave>5</octave>
</pitch>
<duration>4</duration>
<type>half</type>
<lyric>
<text>da,</text>
</lyric>
</note>
</measure>
<measure number="7">
<note>
<pitch>
<step>A</step>
<octave>5</octave>
</pitch>
<duration>3</duration>
<type>quarter</type>
<dot/>
<lyric>
<text>ba-</text>
</lyric>
</note>
<note>
<pitch>
<step>A</step>
<octave>5</octave>
</pitch>
<duration>1</duration>
<type>eighth</type>
<lyric>
<text>lö</text>
</lyric>
</note>
<note>
<pitch>
<step>G</step>
<octave>5</octave>
</pitch>
<duration>2</duration>
<type>quarter</type>
<lyric>
<text>sa</text>
</lyric>
</note>
<note>
<pitch>
<step>E</step>
<octave>5</octave>
</pitch>
<duration>2</duration>
<type>quarter</type>
<lyric>
<text>fa-</text>
</lyric>
</note>
</measure>
<measure number="8">
<note>
<pitch>
<step>G</step>
<octave>5</octave>
</pitch>
<duration>1</duration>
<type>eighth</type>
<beam number="1">begin</beam>
<notations>
<slur type="start" number="1"/>
</notations>
<lyric>
<text>röi</text>
</lyric>
</note>
<note>
<pitch>
<step>F</step>
<octave>5</octave>
</pitch>
<duration>1</duration>
<type>eighth</type>
<beam number="1">end</beam>
<notations>
<slur type="stop" number="1"/>
</notations>
</note>
<note>
<pitch>
<step>E</step>
<octave>5</octave>
</pitch>
<duration>1</duration>
<type>eighth</type>
<beam number="1">begin</beam>
<notations>
<slur type="start" number="2"/>
</notations>
<lyric>
<text>I-</text>
</lyric>
</note>
<note>
<pitch>
<step>D</step>
<octave>5</octave>
</pitch>
<duration>1</duration>
<type>eighth</type>
<beam number="1">end</beam>
<notations>
<slur type="stop" number="2"/>
</notations>
</note>
<note>
<pitch>
<step>E</step>
<octave>5</octave>
</pitch>
<duration>4</duration>
<type>half</type>
<lyric>
<text>a,</text>
</lyric>
</note>
</measure>
<measure number="9">
<note>
<pitch>
<step>A</step>
<octave>5</octave>
</pitch>
<duration>3</duration>
<type>quarter</type>
<dot/>
<lyric>
<text>ba</text>
</lyric>
</note>
<note>
<pitch>
<step>A</step>
<octave>5</octave>
</pitch>
<duration>1</duration>
<type>eighth</type>
<lyric>
<text>lö</text>
</lyric>
</note>
<note>
<pitch>
<step>G</step>
<octave>5</octave>
</pitch>
<duration>2</duration>
<type>quarter</type>
<lyric>
<text>sa</text>
</lyric>
</note>
<note>
<pitch>
<step>E</step>
<octave>5</octave>
</pitch>
<duration>2</duration>
<type>quarter</type>
<lyric>
<text>fa</text>
</lyric>
</note>
</measure>
<measure number="10">
<note>
<pitch>
<step>E</step>
<octave>5</octave>
</pitch>
<duration>2</duration>
<type>quarter</type>
<lyric>
<text>röi</text>
</lyric>
</note>
<note>
<pitch>
<step>D</step>
<octave>5</octave>
</pitch>
<duration>2</duration>
<type>quarter</type>
<lyric>
<text>I-</text>
</lyric>
</note>
<note>
<pitch>
<step>C</step>
<octave>5</octave>
</pitch>
<duration>4</duration>
<type>half</type>
<lyric>
<text>a.</text>
</lyric>
</note>
<barline location="right">
<bar-style>light-heavy</bar-style>
</barline>
</measure>
</part>
</score-partwise>