<?xml version="1.0" encoding="UTF-8"?>
<score-partwise version="4.0">
  <work><work-title>1. Haleluya khö Yehowa</work-title></work>
  <part-list>
    <score-part id="P1"><part-name>Vocal</part-name></score-part>
  </part-list>
  <part id="P1">
    <measure number="1">
      <attributes>
        <divisions>2</divisions>
        <key><fifths>0</fifths></key>
        <time><beats>4</beats><beat-type>4</beat-type></time>
        <clef><sign>G</sign><line>2</line></clef>
      </attributes>
      <note><pitch><step>G</step><octave>4</octave></pitch><duration>2</duration><type>quarter</type><lyric><text>Ha-</text></lyric></note>
      <note><pitch><step>C</step><octave>5</octave></pitch><duration>2</duration><type>quarter</type><lyric><text>le-</text></lyric></note>
      <note><pitch><step>D</step><octave>5</octave></pitch><duration>2</duration><type>quarter</type><lyric><text>lu-</text></lyric></note>
      <note><pitch><step>E</step><octave>5</octave></pitch><duration>2</duration><type>quarter</type><lyric><text>ya</text></lyric></note>
    </measure>
    <measure number="2">
      <note><pitch><step>A</step><octave>5</octave></pitch><duration>2</duration><type>quarter</type><lyric><text>khö</text></lyric></note>
      <note><pitch><step>G</step><octave>5</octave></pitch><duration>2</duration><type>quarter</type><lyric><text>Ye-</text></lyric></note>
      <note><pitch><step>G</step><octave>5</octave></pitch><duration>1</duration><type>eighth</type><beam number="1">begin</beam><notations><slur type="start" number="1"/></notations><lyric><text>ho-</text></lyric></note>
      <note><pitch><step>F</step><octave>5</octave></pitch><duration>1</duration><type>eighth</type><beam number="1">end</beam><notations><slur type="stop" number="1"/></notations></note>
      <note><pitch><step>E</step><octave>5</octave></pitch><duration>2</duration><type>quarter</type><lyric><text>wa,</text></lyric></note>
    </measure>
    <measure number="3">
      <note><pitch><step>D</step><octave>5</octave></pitch><duration>2</duration><type>quarter</type><lyric><text>wa'o-</text></lyric></note>
      <note><pitch><step>E</step><octave>5</octave></pitch><duration>2</duration><type>quarter</type><lyric><text>mu-</text></lyric></note>
      <note><pitch><step>F</step><octave>5</octave></pitch><duration>2</duration><type>quarter</type><lyric><text>so</text></lyric></note>
      <note><pitch><step>G</step><octave>5</octave></pitch><duration>2</duration><type>quarter</type><lyric><text>dö-</text></lyric></note>
    </measure>
    <measure number="4">
      <note><pitch><step>E</step><octave>5</octave></pitch><duration>2</duration><type>quarter</type><lyric><text>dö-</text></lyric></note>
      <note><pitch><step>D</step><octave>5</octave></pitch><duration>2</duration><type>quarter</type><lyric><text>gu.</text></lyric></note>
      <note><pitch><step>C</step><octave>5</octave></pitch><duration>4</duration><type>half</type></note>
    </measure>

    <measure number="5">
      <note><pitch><step>G</step><octave>4</octave></pitch><duration>2</duration><type>quarter</type><lyric><text>Su-</text></lyric></note>
      <note><pitch><step>C</step><octave>5</octave></pitch><duration>2</duration><type>quarter</type><lyric><text>no</text></lyric></note>
      <note><pitch><step>D</step><octave>5</octave></pitch><duration>2</duration><type>quarter</type><lyric><text>I-</text></lyric></note>
      <note><pitch><step>E</step><octave>5</octave></pitch><duration>2</duration><type>quarter</type><lyric><text>a</text></lyric></note>
    </measure>
    <measure number="6">
      <note><pitch><step>A</step><octave>5</octave></pitch><duration>2</duration><type>quarter</type><lyric><text>si</text></lyric></note>
      <note><pitch><step>G</step><octave>5</octave></pitch><duration>2</duration><type>quarter</type><lyric><text>lö</text></lyric></note>
      <note><pitch><step>G</step><octave>5</octave></pitch><duration>1</duration><type>eighth</type><beam number="1">begin</beam><notations><slur type="start" number="1"/></notations><lyric><text>ae-</text></lyric></note>
      <note><pitch><step>F</step><octave>5</octave></pitch><duration>1</duration><type>eighth</type><beam number="1">end</beam><notations><slur type="stop" number="1"/></notations></note>
      <note><pitch><step>E</step><octave>5</octave></pitch><duration>2</duration><type>quarter</type><lyric><text>tu,</text></lyric></note>
    </measure>
    <measure number="7">
      <note><pitch><step>D</step><octave>5</octave></pitch><duration>2</duration><type>quarter</type><lyric><text>khö-</text></lyric></note>
      <note><pitch><step>E</step><octave>5</octave></pitch><duration>2</duration><type>quarter</type><lyric><text>Ni-</text></lyric></note>
      <note><pitch><step>F</step><octave>5</octave></pitch><duration>2</duration><type>quarter</type><lyric><text>a wa-</text></lyric></note>
      <note><pitch><step>G</step><octave>5</octave></pitch><duration>2</duration><type>quarter</type><lyric><text>nu-</text></lyric></note>
    </measure>
    <measure number="8">
      <note><pitch><step>E</step><octave>5</octave></pitch><duration>2</duration><type>quarter</type><lyric><text>nö-</text></lyric></note>
      <note><pitch><step>D</step><octave>5</octave></pitch><duration>2</duration><type>quarter</type><lyric><text>gu.</text></lyric></note>
      <note><pitch><step>C</step><octave>5</octave></pitch><duration>4</duration><type>half</type></note>
    </measure>

    <measure number="9">
      <note><pitch><step>E</step><octave>5</octave></pitch><duration>2</duration><type>quarter</type><lyric><text>Gö-</text></lyric></note>
      <note><pitch><step>D</step><octave>5</octave></pitch><duration>2</duration><type>quarter</type><lyric><text>tö</text></lyric></note>
      <note><pitch><step>C</step><octave>5</octave></pitch><duration>2</duration><type>quarter</type><lyric><text>no-</text></lyric></note>
      <note><pitch><step>B</step><octave>4</octave></pitch><duration>2</duration><type>quarter</type><lyric><text>so-</text></lyric></note>
    </measure>
    <measure number="10">
      <note><pitch><step>C</step><octave>5</octave></pitch><duration>2</duration><type>quarter</type><lyric><text>gu</text></lyric></note>
      <note><pitch><step>A</step><octave>4</octave></pitch><duration>2</duration><type>quarter</type><lyric><text>a-</text></lyric></note>
      <note><pitch><step>G</step><octave>4</octave></pitch><duration>4</duration><type>half</type><lyric><text>ndre</text></lyric></note>
    </measure>
    <measure number="11">
      <note><pitch><step>G</step><octave>5</octave></pitch><duration>2</duration><type>quarter</type><lyric><text>lö</text></lyric></note>
      <note><pitch><step>A</step><octave>5</octave></pitch><duration>2</duration><type>quarter</type><lyric><text>u-</text></lyric></note>
      <note><pitch><step>G</step><octave>5</octave></pitch><duration>1</duration><type>eighth</type><beam number="1">begin</beam><notations><slur type="start" number="1"/></notations><lyric><text>ba-</text></lyric></note>
      <note><pitch><step>F</step><octave>5</octave></pitch><duration>1</duration><type>eighth</type><beam number="1">end</beam><notations><slur type="stop" number="1"/></notations></note>
      <note><pitch><step>E</step><octave>5</octave></pitch><duration>2</duration><type>quarter</type><lyric><text>to</text></lyric></note>
    </measure>
    <measure number="12">
      <note><pitch><step>F</step><octave>5</octave></pitch><duration>1</duration><type>eighth</type><beam number="1">begin</beam><notations><slur type="start" number="1"/></notations><lyric><text>wa-</text></lyric></note>
      <note><pitch><step>E</step><octave>5</octave></pitch><duration>1</duration><type>eighth</type><beam number="1">end</beam><notations><slur type="stop" number="1"/></notations></note>
      <note><pitch><step>D</step><octave>5</octave></pitch><duration>2</duration><type>quarter</type><lyric><text>nu-</text></lyric></note>
      <note><pitch><step>C</step><octave>5</octave></pitch><duration>4</duration><type>half</type><lyric><text>no.</text></lyric></note>
      <barline location="right"><bar-style>light-heavy</bar-style></barline>
    </measure>
  </part>
</score-partwise>