<?xml version="1.0" encoding="UTF-8"?>
<score-partwise version="4.0">
  <work>
    <work-title>22. YESU HA UBE FANUNO</work-title>
  </work>
  <part-list>
    <score-part id="P1">
      <part-name>Vocal</part-name>
    </score-part>
  </part-list>
  <part id="P1">
    <measure number="1">
      <attributes>
        <divisions>2</divisions>
        <key>
          <fifths>-2</fifths>
        </key>
        <time>
          <beats>4</beats>
          <beat-type>4</beat-type>
        </time>
        <clef>
          <sign>G</sign>
          <line>2</line>
        </clef>
      </attributes>
      <note>
        <pitch>
          <step>F</step>
          <octave>5</octave>
        </pitch>
        <duration>2</duration>
        <type>quarter</type>
        <lyric number="1">
          <text>Ye-</text>
        </lyric>
        <lyric number="2">
          <text>He-</text>
        </lyric>
      </note>
      <note>
        <pitch>
          <step>B</step>
          <alter>-1</alter>
          <octave>5</octave>
        </pitch>
        <duration>2</duration>
        <type>quarter</type>
        <lyric number="1">
          <text>su-</text>
        </lyric>
        <lyric number="2">
          <text>u-</text>
        </lyric>
      </note>
      <note>
        <pitch>
          <step>F</step>
          <octave>5</octave>
        </pitch>
        <duration>2</duration>
        <type>quarter</type>
        <lyric number="1">
          <text>ha-</text>
        </lyric>
        <lyric number="2">
          <text>wi-</text>
        </lyric>
      </note>
      <note>
        <pitch>
          <step>G</step>
          <octave>5</octave>
        </pitch>
        <duration>2</duration>
        <type>quarter</type>
        <lyric number="1">
          <text>u-</text>
        </lyric>
        <lyric number="2">
          <text>sa-</text>
        </lyric>
      </note>
    </measure>
    <measure number="2">
      <note>
        <pitch>
          <step>F</step>
          <octave>5</octave>
        </pitch>
        <duration>3</duration>
        <type>quarter</type>
        <dot/>
        <lyric number="1">
          <text>be-</text>
        </lyric>
        <lyric number="2">
          <text>wa-</text>
        </lyric>
      </note>
      <note>
        <pitch>
          <step>E</step>
          <alter>-1</alter>
          <octave>5</octave>
        </pitch>
        <duration>1</duration>
        <type>eighth</type>
        <lyric number="1">
          <text>fa-</text>
        </lyric>
        <lyric number="2">
          <text>ma-</text>
        </lyric>
      </note>
      <note>
        <pitch>
          <step>D</step>
          <octave>5</octave>
        </pitch>
        <duration>2</duration>
        <type>quarter</type>
        <lyric number="1">
          <text>nu-</text>
        </lyric>
        <lyric number="2">
          <text>tu-</text>
        </lyric>
      </note>
      <note>
        <pitch>
          <step>B</step>
          <alter>-1</alter>
          <octave>4</octave>
        </pitch>
        <duration>2</duration>
        <type>quarter</type>
        <notations>
          <articulations>
            <breath-mark/>
          </articulations>
        </notations>
        <lyric number="1">
          <text>no</text>
        </lyric>
        <lyric number="2">
          <text>nö</text>
        </lyric>
      </note>
    </measure>
    <measure number="3">
      <note>
        <pitch>
          <step>F</step>
          <octave>5</octave>
        </pitch>
        <duration>2</duration>
        <type>quarter</type>
        <lyric number="1">
          <text>wa'-</text>
        </lyric>
        <lyric number="2">
          <text>fa'-</text>
        </lyric>
      </note>
      <note>
        <pitch>
          <step>F</step>
          <octave>5</octave>
        </pitch>
        <duration>2</duration>
        <type>quarter</type>
        <lyric number="1">
          <text>e-</text>
        </lyric>
        <lyric number="2">
          <text>a-</text>
        </lyric>
      </note>
      <note>
        <pitch>
          <step>E</step>
          <alter>-1</alter>
          <octave>5</octave>
        </pitch>
        <duration>2</duration>
        <type>quarter</type>
        <lyric number="1">
          <text>bu-</text>
        </lyric>
        <lyric number="2">
          <text>tu-</text>
        </lyric>
      </note>
      <note>
        <pitch>
          <step>D</step>
          <octave>5</octave>
        </pitch>
        <duration>2</duration>
        <type>quarter</type>
        <lyric number="1">
          <text>a-</text>
        </lyric>
        <lyric number="2">
          <text>lö-</text>
        </lyric>
      </note>
    </measure>
    <measure number="4">
      <note>
        <pitch>
          <step>C</step>
          <octave>5</octave>
        </pitch>
        <duration>3</duration>
        <type>quarter</type>
        <dot/>
        <lyric number="1">
          <text>dö-</text>
        </lyric>
        <lyric number="2">
          <text>ni-</text>
        </lyric>
      </note>
      <note>
        <pitch>
          <step>C</step>
          <octave>5</octave>
        </pitch>
        <duration>1</duration>
        <type>eighth</type>
        <lyric number="1">
          <text>dö-</text>
        </lyric>
        <lyric number="2">
          <text>lau-</text>
        </lyric>
      </note>
      <note>
        <pitch>
          <step>B</step>
          <alter>-1</alter>
          <octave>4</octave>
        </pitch>
        <duration>4</duration>
        <type>half</type>
        <lyric number="1">
          <text>Mö</text>
        </lyric>
        <lyric number="2">
          <text>Mö</text>
        </lyric>
      </note>
      <barline location="right">
        <bar-style>light-heavy</bar-style>
        <repeat direction="backward"/>
      </barline>
    </measure>
    <measure number="5">
      <note>
        <pitch>
          <step>C</step>
          <octave>5</octave>
        </pitch>
        <duration>2</duration>
        <type>quarter</type>
        <lyric>
          <text>He-</text>
        </lyric>
      </note>
      <note>
        <pitch>
          <step>C</step>
          <octave>5</octave>
        </pitch>
        <duration>2</duration>
        <type>quarter</type>
        <lyric>
          <text>So-</text>
        </lyric>
      </note>
      <note>
        <pitch>
          <step>D</step>
          <octave>5</octave>
        </pitch>
        <duration>2</duration>
        <type>quarter</type>
        <lyric>
          <text>a-</text>
        </lyric>
      </note>
      <note>
        <pitch>
          <step>F</step>
          <octave>5</octave>
        </pitch>
        <duration>2</duration>
        <type>quarter</type>
        <lyric>
          <text>ya-</text>
        </lyric>
      </note>
    </measure>
    <measure number="6">
      <note>
        <pitch>
          <step>F</step>
          <octave>5</octave>
        </pitch>
        <duration>3</duration>
        <type>quarter</type>
        <dot/>
        <lyric>
          <text>sa-</text>
        </lyric>
      </note>
      <note>
        <pitch>
          <step>E</step>
          <octave>5</octave>
        </pitch>
        <duration>1</duration>
        <type>eighth</type>
        <accidental>natural</accidental>
        <lyric>
          <text>ma-</text>
        </lyric>
      </note>
      <note>
        <pitch>
          <step>F</step>
          <octave>5</octave>
        </pitch>
        <duration>2</duration>
        <type>quarter</type>
        <lyric>
          <text>tö-</text>
        </lyric>
      </note>
      <note>
        <pitch>
          <step>F</step>
          <octave>5</octave>
        </pitch>
        <duration>2</duration>
        <type>quarter</type>
        <notations>
          <articulations>
            <breath-mark/>
          </articulations>
        </notations>
        <lyric>
          <text>rö</text>
        </lyric>
      </note>
    </measure>
    <measure number="7">
      <note>
        <pitch>
          <step>G</step>
          <octave>5</octave>
        </pitch>
        <duration>2</duration>
        <type>quarter</type>
        <lyric>
          <text>si-</text>
        </lyric>
      </note>
      <note>
        <pitch>
          <step>A</step>
          <octave>5</octave>
        </pitch>
        <duration>2</duration>
        <type>quarter</type>
        <lyric>
          <text>lö-</text>
        </lyric>
      </note>
      <note>
        <pitch>
          <step>B</step>
          <alter>-1</alter>
          <octave>5</octave>
        </pitch>
        <duration>2</duration>
        <type>quarter</type>
        <lyric>
          <text>a-</text>
        </lyric>
      </note>
      <note>
        <pitch>
          <step>B</step>
          <alter>-1</alter>
          <octave>5</octave>
        </pitch>
        <duration>2</duration>
        <type>quarter</type>
        <lyric>
          <text>mbö</text>
        </lyric>
      </note>
    </measure>
    <measure number="8">
      <note>
        <pitch>
          <step>A</step>
          <octave>5</octave>
        </pitch>
        <duration>3</duration>
        <type>quarter</type>
        <dot/>
        <lyric>
          <text>fa'-</text>
        </lyric>
      </note>
      <note>
        <pitch>
          <step>A</step>
          <octave>5</octave>
        </pitch>
        <duration>1</duration>
        <type>eighth</type>
        <lyric>
          <text>a-</text>
        </lyric>
      </note>
      <note>
        <pitch>
          <step>G</step>
          <octave>5</octave>
        </pitch>
        <duration>2</duration>
        <type>quarter</type>
        <lyric>
          <text>bö-</text>
        </lyric>
      </note>
      <note>
        <pitch>
          <step>G</step>
          <octave>5</octave>
        </pitch>
        <duration>5</duration>
        <type>quarter</type>
        <notations>
          <articulations>
            <breath-mark/>
          </articulations>
        </notations>
        <duration>2</duration>
        <lyric>
          <text>lö</text>
        </lyric>
      </note>
    </measure>
    <measure number="9">
      <note>
        <pitch>
          <step>D</step>
          <octave>5</octave>
        </pitch>
        <duration>2</duration>
        <type>quarter</type>
        <lyric>
          <text>be'-</text>
        </lyric>
      </note>
      <note>
        <pitch>
          <step>D</step>
          <octave>5</octave>
        </pitch>
        <duration>2</duration>
        <type>quarter</type>
        <lyric>
          <text>e-</text>
        </lyric>
      </note>
      <note>
        <pitch>
          <step>G</step>
          <octave>5</octave>
        </pitch>
        <duration>2</duration>
        <type>quarter</type>
        <lyric>
          <text>khö-</text>
        </lyric>
      </note>
      <note>
        <pitch>
          <step>F</step>
          <octave>5</octave>
        </pitch>
        <duration>2</duration>
        <type>quarter</type>
        <lyric>
          <text>gu</text>
        </lyric>
      </note>
    </measure>
    <measure number="10">
      <note>
        <pitch>
          <step>F</step>
          <octave>5</octave>
        </pitch>
        <duration>3</duration>
        <type>quarter</type>
        <dot/>
        <lyric>
          <text>Ge-</text>
        </lyric>
      </note>
      <note>
        <pitch>
          <step>E</step>
          <octave>5</octave>
        </pitch>
        <duration>1</duration>
        <type>eighth</type>
        <accidental>natural</accidental>
        <lyric>
          <text>he-</text>
        </lyric>
      </note>
      <note>
        <pitch>
          <step>F</step>
          <octave>5</octave>
        </pitch>
        <duration>4</duration>
        <type>half</type>
        <lyric>
          <text>hau</text>
        </lyric>
      </note>
    </measure>
    <measure number="11">
      <note>
        <pitch>
          <step>G</step>
          <octave>5</octave>
        </pitch>
        <duration>2</duration>
        <type>quarter</type>
        <lyric>
          <text>I-</text>
        </lyric>
      </note>
      <note>
        <pitch>
          <step>A</step>
          <octave>5</octave>
        </pitch>
        <duration>2</duration>
        <type>quarter</type>
        <lyric>
          <text>o-</text>
        </lyric>
      </note>
      <note>
        <pitch>
          <step>B</step>
          <alter>-1</alter>
          <octave>5</octave>
        </pitch>
        <duration>1</duration>
        <type>eighth</type>
        <beam number="1">begin</beam>
        <notations>
          <slur type="start" number="1"/>
        </notations>
        <lyric>
          <text>ou</text>
        </lyric>
      </note>
      <note>
        <pitch>
          <step>C</step>
          <octave>6</octave>
        </pitch>
        <duration>1</duration>
        <type>eighth</type>
        <beam number="1">end</beam>
        <notations>
          <slur type="stop" number="1"/>
        </notations>
      </note>
      <note>
        <pitch>
          <step>D</step>
          <octave>5</octave>
        </pitch>
        <duration>2</duration>
        <type>quarter</type>
        <lyric>
          <text>do</text>
        </lyric>
      </note>
    </measure>
    <measure number="12">
      <note>
        <pitch>
          <step>C</step>
          <octave>5</octave>
        </pitch>
        <duration>3</duration>
        <type>quarter</type>
        <dot/>
        <lyric>
          <text>I-</text>
        </lyric>
      </note>
      <note>
        <pitch>
          <step>C</step>
          <octave>5</octave>
        </pitch>
        <duration>1</duration>
        <type>eighth</type>
        <lyric>
          <text>fa-</text>
        </lyric>
      </note>
      <note>
        <pitch>
          <step>B</step>
          <alter>-1</alter>
          <octave>4</octave>
        </pitch>
        <duration>4</duration>
        <type>half</type>
        <lyric>
          <text>haö.</text>
        </lyric>
      </note>
      <barline location="right">
        <bar-style>light-heavy</bar-style>
      </barline>
    </measure>
  </part>
</score-partwise>