<?xml version="1.0" encoding="UTF-8"?>

<score-partwise version="4.0">
<work>
<work-title>290. SIKOLI BA DANÖ NDRA'O</work-title>
</work>
<part-list>
<score-part id="P1">
<part-name>Vocal</part-name>
</score-part>
</part-list>
<part id="P1">
<measure number="1">
<attributes>
<divisions>1</divisions>
<key>
<fifths>0</fifths>
</key>
<time>
<beats>4</beats>
<beat-type>4</beat-type>
</time>
<clef>
<sign>G</sign>
<line>2</line>
</clef>
</attributes>
<direction placement="above">
<direction-type>
<metronome>
<beat-unit>quarter</beat-unit>
<per-minute>120</per-minute>
</metronome>
</direction-type>
<sound tempo="120"/>
</direction>
<note>
<pitch>
<step>C</step>
<octave>4</octave>
</pitch>
<duration>2</duration>
<type>half</type>
<lyric>
<syllabic>begin</syllabic>
<text>Si</text>
</lyric>
</note>
</measure>
<measure number="2">
<note>
<pitch>
<step>G</step>
<octave>4</octave>
</pitch>
<duration>1</duration>
<type>quarter</type>
<lyric>
<syllabic>middle</syllabic>
<text>ko</text>
</lyric>
</note>
<note>
<pitch>
<step>F</step>
<octave>4</octave>
</pitch>
<duration>1</duration>
<type>quarter</type>
<lyric>
<syllabic>end</syllabic>
<text>li</text>
</lyric>
</note>
<note>
<pitch>
<step>E</step>
<octave>4</octave>
</pitch>
<duration>1</duration>
<type>quarter</type>
<lyric>
<syllabic>single</syllabic>
<text>ba</text>
</lyric>
</note>
<note>
<pitch>
<step>D</step>
<octave>4</octave>
</pitch>
<duration>1</duration>
<type>quarter</type>
<lyric>
<syllabic>begin</syllabic>
<text>da</text>
</lyric>
</note>
</measure>
<measure number="3">
<note>
<pitch>
<step>C</step>
<octave>4</octave>
</pitch>
<duration>2</duration>
<type>half</type>
<lyric>
<syllabic>end</syllabic>
<text>nö</text>
</lyric>
</note>
<note>
<pitch>
<step>D</step>
<octave>4</octave>
</pitch>
<duration>2</duration>
<type>half</type>
<lyric>
<syllabic>begin</syllabic>
<text>ndra'</text>
</lyric>
</note>
</measure>
<measure number="4">
<note>
<pitch>
<step>E</step>
<octave>4</octave>
</pitch>
<duration>2</duration>
<type>half</type>
<notations>
<articulations>
<breath-mark/>
</articulations>
</notations>
<lyric>
<syllabic>end</syllabic>
<text>o,</text>
</lyric>
</note>
<note>
<pitch>
<step>E</step>
<octave>4</octave>
</pitch>
<duration>2</duration>
<type>half</type>
<lyric>
<syllabic>begin</syllabic>
<text>u</text>
</lyric>
</note>
</measure>
<measure number="5">
<note>
<pitch>
<step>A</step>
<octave>4</octave>
</pitch>
<duration>1</duration>
<type>quarter</type>
<lyric>
<syllabic>middle</syllabic>
<text>sa</text>
</lyric>
</note>
<note>
<pitch>
<step>A</step>
<octave>4</octave>
</pitch>
<duration>1</duration>
<type>quarter</type>
<lyric>
<syllabic>end</syllabic>
<text>wâ</text>
</lyric>
</note>
<note>
<pitch>
<step>G</step>
<octave>4</octave>
</pitch>
<duration>1</duration>
<type>quarter</type>
<lyric>
<syllabic>begin</syllabic>
<text>mba</text>
</lyric>
</note>
<note>
<pitch>
<step>E</step>
<octave>4</octave>
</pitch>
<duration>1</duration>
<type>quarter</type>
<lyric>
<syllabic>end</syllabic>
<text>nu</text>
</lyric>
</note>
</measure>
<measure number="6">
<note>
<pitch>
<step>G</step>
<octave>4</octave>
</pitch>
<duration>2</duration>
<type>half</type>
<lyric>
<syllabic>single</syllabic>
<text>a</text>
</lyric>
</note>
<note>
<pitch>
<step>F</step>
<octave>4</octave>
</pitch>
<duration>2</duration>
<type>half</type>
<lyric>
<syllabic>begin</syllabic>
<text>a</text>
</lyric>
</note>
</measure>
<measure number="7">
<note>
<pitch>
<step>E</step>
<octave>4</octave>
</pitch>
<duration>2</duration>
<type>half</type>
<notations>
<articulations>
<breath-mark/>
</articulations>
</notations>
<lyric>
<syllabic>end</syllabic>
<text>ndrö,</text>
</lyric>
</note>
<note>
<pitch>
<step>G</step>
<octave>4</octave>
</pitch>
<duration>2</duration>
<type>half</type>
<lyric>
<syllabic>single</syllabic>
<text>so</text>
</lyric>
</note>
</measure>
<measure number="8">
<note>
<pitch>
<step>F</step>
<octave>4</octave>
</pitch>
<duration>1</duration>
<type>quarter</type>
<lyric>
<syllabic>single</syllabic>
<text>töi</text>
</lyric>
</note>
<note>
<pitch>
<step>E</step>
<octave>4</octave>
</pitch>
<duration>1</duration>
<type>quarter</type>
<lyric>
<syllabic>begin</syllabic>
<text>Ye</text>
</lyric>
</note>
<note>
<pitch>
<step>D</step>
<octave>4</octave>
</pitch>
<duration>1</duration>
<type>quarter</type>
<lyric>
<syllabic>end</syllabic>
<text>ru</text>
</lyric>
</note>
<note>
<pitch>
<step>G</step>
<octave>4</octave>
</pitch>
<duration>1</duration>
<type>quarter</type>
<lyric>
<syllabic>begin</syllabic>
<text>sa</text>
</lyric>
</note>
</measure>
<measure number="9">
<note>
<pitch>
<step>F</step>
<octave>4</octave>
</pitch>
<duration>1</duration>
<type>quarter</type>
<lyric>
<syllabic>middle</syllabic>
<text>le</text>
</lyric>
</note>
<note>
<pitch>
<step>E</step>
<octave>4</octave>
</pitch>
<duration>1</duration>
<type>quarter</type>
<lyric>
<syllabic>end</syllabic>
<text>ma</text>
</lyric>
</note>
<note>
<pitch>
<step>D</step>
<octave>4</octave>
</pitch>
<duration>2</duration>
<type>half</type>
<lyric>
<syllabic>begin</syllabic>
<text>ya</text>
</lyric>
</note>
</measure>
<measure number="10">
<note>
<pitch>
<step>C</step>
<octave>4</octave>
</pitch>
<duration>3</duration>
<type>half</type>
<dot/>
<lyric>
<syllabic>end</syllabic>
<text>wâ.</text>
</lyric>
</note>
<note>
<rest/>
<duration>1</duration>
<type>quarter</type>
</note>
</measure>
<measure number="11">
<note>
<pitch>
<step>C</step>
<octave>4</octave>
</pitch>
<duration>2</duration>
<type>half</type>
<lyric>
<syllabic>begin</syllabic>
<text>Ba</text>
</lyric>
</note>
<note>
<pitch>
<step>E</step>
<octave>4</octave>
</pitch>
<duration>1</duration>
<type>quarter</type>
<lyric>
<syllabic>middle</syllabic>
<text>nu</text>
</lyric>
</note>
<note>
<pitch>
<step>F</step>
<octave>4</octave>
</pitch>
<duration>1</duration>
<type>quarter</type>
<lyric>
<syllabic>end</syllabic>
<text>a</text>
</lyric>
</note>
</measure>
<measure number="12">
<note>
<pitch>
<step>G</step>
<octave>4</octave>
</pitch>
<duration>2</duration>
<type>half</type>
<lyric>
<syllabic>begin</syllabic>
<text>Zo'</text>
</lyric>
</note>
<note>
<pitch>
<step>A</step>
<octave>4</octave>
</pitch>
<duration>2</duration>
<type>half</type>
<lyric>
<syllabic>middle</syllabic>
<text>a</text>
</lyric>
</note>
</measure>
<measure number="13">
<note>
<pitch>
<step>G</step>
<octave>4</octave>
</pitch>
<duration>1</duration>
<type>quarter</type>
<lyric>
<syllabic>end</syllabic>
<text>ya</text>
</lyric>
</note>
<note>
<pitch>
<step>F</step>
<alter>1</alter>
<octave>4</octave>
</pitch>
<duration>1</duration>
<type>quarter</type>
<accidental>sharp</accidental>
<lyric>
<syllabic>begin</syllabic>
<text>ya'</text>
</lyric>
</note>
<note>
<pitch>
<step>G</step>
<octave>4</octave>
</pitch>
<duration>2</duration>
<type>half</type>
<notations>
<articulations>
<breath-mark/>
</articulations>
</notations>
<lyric>
<syllabic>end</syllabic>
<text>o,</text>
</lyric>
</note>
</measure>
<measure number="14">
<note>
<pitch>
<step>C</step>
<octave>4</octave>
</pitch>
<duration>2</duration>
<type>half</type>
<lyric>
<syllabic>single</syllabic>
<text>no</text>
</lyric>
</note>
<note>
<pitch>
<step>E</step>
<octave>4</octave>
</pitch>
<duration>1</duration>
<type>quarter</type>
<lyric>
<syllabic>begin</syllabic>
<text>I</text>
</lyric>
</note>
<note>
<pitch>
<step>F</step>
<octave>4</octave>
</pitch>
<duration>1</duration>
<type>quarter</type>
<lyric>
<syllabic>middle</syllabic>
<text>hö</text>
</lyric>
</note>
</measure>
<measure number="15">
<note>
<pitch>
<step>G</step>
<octave>4</octave>
</pitch>
<duration>2</duration>
<type>half</type>
<lyric>
<syllabic>end</syllabic>
<text>na</text>
</lyric>
</note>
<note>
<pitch>
<step>A</step>
<octave>4</octave>
</pitch>
<duration>2</duration>
<type>half</type>
<lyric>
<syllabic>single</syllabic>
<text>gö</text>
</lyric>
</note>
</measure>
<measure number="16">
<note>
<pitch>
<step>G</step>
<octave>4</octave>
</pitch>
<duration>1</duration>
<type>quarter</type>
<lyric>
<syllabic>begin</syllabic>
<text>I</text>
</lyric>
</note>
<note>
<pitch>
<step>F</step>
<alter>1</alter>
<octave>4</octave>
</pitch>
<duration>1</duration>
<type>quarter</type>
<accidental>sharp</accidental>
<lyric>
<syllabic>middle</syllabic>
<text>hao</text>
</lyric>
</note>
<note>
<pitch>
<step>G</step>
<octave>4</octave>
</pitch>
<duration>2</duration>
<type>half</type>
<notations>
<articulations>
<breath-mark/>
</articulations>
</notations>
<lyric>
<syllabic>end</syllabic>
<text>gö,</text>
</lyric>
</note>
</measure>
<measure number="17">
<note>
<pitch>
<step>C</step>
<octave>5</octave>
</pitch>
<duration>2</duration>
<type>half</type>
<lyric>
<syllabic>begin</syllabic>
<text>u</text>
</lyric>
</note>
<note>
<pitch>
<step>B</step>
<octave>4</octave>
</pitch>
<duration>1</duration>
<type>quarter</type>
<lyric>
<syllabic>middle</syllabic>
<text>su</text>
</lyric>
</note>
<note>
<pitch>
<step>A</step>
<octave>4</octave>
</pitch>
<duration>1</duration>
<type>quarter</type>
<lyric>
<syllabic>middle</syllabic>
<text>no</text>
</lyric>
</note>
</measure>
<measure number="18">
<note>
<pitch>
<step>G</step>
<octave>4</octave>
</pitch>
<duration>2</duration>
<type>half</type>
<lyric>
<syllabic>middle</syllabic>
<text>su</text>
</lyric>
</note>
<note>
<pitch>
<step>E</step>
<octave>4</octave>
</pitch>
<duration>2</duration>
<type>half</type>
<lyric>
<syllabic>end</syllabic>
<text>no</text>
</lyric>
</note>
</measure>
<measure number="19">
<note>
<pitch>
<step>F</step>
<octave>4</octave>
</pitch>
<duration>1</duration>
<type>quarter</type>
<lyric>
<syllabic>single</syllabic>
<text>ae</text>
</lyric>
</note>
<note>
<pitch>
<step>G</step>
<octave>4</octave>
</pitch>
<duration>1</duration>
<type>quarter</type>
<lyric>
<syllabic>begin</syllabic>
<text>Zo'</text>
</lyric>
</note>
<note>
<pitch>
<step>A</step>
<octave>4</octave>
</pitch>
<duration>2</duration>
<type>half</type>
<lyric>
<syllabic>middle</syllabic>
<text>a</text>
</lyric>
</note>
</measure>
<measure number="20">
<note>
<pitch>
<step>G</step>
<octave>4</octave>
</pitch>
<duration>2</duration>
<type>half</type>
<lyric>
<syllabic>end</syllabic>
<text>ya.</text>
</lyric>
</note>
<note>
<rest/>
<duration>1</duration>
<type>quarter</type>
</note>
<note>
<rest/>
<duration>1</duration>
<type>quarter</type>
</note>
</measure>
<measure number="21">
<note>
<pitch>
<step>G</step>
<octave>4</octave>
</pitch>
<duration>2</duration>
<type>half</type>
<lyric>
<syllabic>begin</syllabic>
<text>Si</text>
</lyric>
</note>
<note>
<pitch>
<step>G</step>
<octave>4</octave>
</pitch>
<duration>1</duration>
<type>quarter</type>
<lyric>
<syllabic>middle</syllabic>
<text>ko</text>
</lyric>
</note>
<note>
<pitch>
<step>F</step>
<octave>4</octave>
</pitch>
<duration>1</duration>
<type>quarter</type>
<lyric>
<syllabic>end</syllabic>
<text>li</text>
</lyric>
</note>
</measure>
<measure number="22">
<note>
<pitch>
<step>E</step>
<octave>4</octave>
</pitch>
<duration>2</duration>
<type>half</type>
<lyric>
<syllabic>begin</syllabic>
<text>ba</text>
</lyric>
</note>
<note>
<pitch>
<step>A</step>
<octave>4</octave>
</pitch>
<duration>2</duration>
<type>half</type>
<lyric>
<syllabic>middle</syllabic>
<text>da</text>
</lyric>
</note>
</measure>
<measure number="23">
<note>
<pitch>
<step>G</step>
<octave>4</octave>
</pitch>
<duration>1</duration>
<type>quarter</type>
<lyric>
<syllabic>end</syllabic>
<text>nö</text>
</lyric>
</note>
<note>
<pitch>
<step>F</step>
<octave>4</octave>
</pitch>
<duration>1</duration>
<type>quarter</type>
<lyric>
<syllabic>begin</syllabic>
<text>ndra'</text>
</lyric>
</note>
<note>
<pitch>
<step>E</step>
<octave>4</octave>
</pitch>
<duration>2</duration>
<type>half</type>
<lyric>
<syllabic>end</syllabic>
<text>o,</text>
</lyric>
</note>
</measure>
<measure number="24">
<note>
<rest/>
<duration>1</duration>
<type>quarter</type>
</note>
<note>
<rest/>
<duration>1</duration>
<type>quarter</type>
</note>
<note>
<pitch>
<step>C</step>
<octave>4</octave>
</pitch>
<duration>2</duration>
<type>half</type>
<lyric>
<syllabic>single</syllabic>
<text>U</text>
</lyric>
</note>
</measure>
<measure number="25">
<note>
<pitch>
<step>E</step>
<octave>4</octave>
</pitch>
<duration>1</duration>
<type>quarter</type>
<lyric>
<syllabic>begin</syllabic>
<text>sa</text>
</lyric>
</note>
<note>
<pitch>
<step>G</step>
<octave>4</octave>
</pitch>
<duration>1</duration>
<type>quarter</type>
<lyric>
<syllabic>end</syllabic>
<text>wâ</text>
</lyric>
</note>
<note>
<pitch>
<step>D</step>
<octave>4</octave>
</pitch>
<duration>1</duration>
<type>quarter</type>
<lyric>
<syllabic>begin</syllabic>
<text>mba</text>
</lyric>
</note>
<note>
<pitch>
<step>F</step>
<octave>4</octave>
</pitch>
<duration>1</duration>
<type>quarter</type>
<lyric>
<syllabic>end</syllabic>
<text>nu</text>
</lyric>
</note>
</measure>
<measure number="26">
<note>
<pitch>
<step>E</step>
<octave>4</octave>
</pitch>
<duration>2</duration>
<type>half</type>
<lyric>
<syllabic>single</syllabic>
<text>a</text>
</lyric>
</note>
<note>
<pitch>
<step>D</step>
<octave>4</octave>
</pitch>
<duration>2</duration>
<type>half</type>
<lyric>
<syllabic>begin</syllabic>
<text>a</text>
</lyric>
</note>
</measure>
<measure number="27">
<note>
<pitch>
<step>C</step>
<octave>4</octave>
</pitch>
<duration>2</duration>
<type>half</type>
<lyric>
<syllabic>end</syllabic>
<text>ndrö.</text>
</lyric>
</note>
<barline location="right">
<bar-style>light-heavy</bar-style>
</barline>
</measure>
</part>
</score-partwise>