<?xml version="1.0" encoding="UTF-8"?>

<score-partwise version="4.0">
<work>
<work-title>292. NO AE AHATÖ GAMOZUA</work-title>
</work>
<part-list>
<score-part id="P1">
<part-name>Vocal</part-name>
</score-part>
</part-list>
<part id="P1">
<measure number="1">
<attributes>
<divisions>1</divisions>
<key>
<fifths>0</fifths>
</key>
<time>
<beats>4</beats>
<beat-type>4</beat-type>
</time>
<clef>
<sign>G</sign>
<line>2</line>
</clef>
</attributes>
<direction placement="above">
<direction-type>
<metronome>
<beat-unit>quarter</beat-unit>
<per-minute>120</per-minute>
</metronome>
</direction-type>
<sound tempo="120"/>
</direction>
<note>
<rest/>
<duration>1</duration>
<type>quarter</type>
</note>
<note>
<pitch>
<step>G</step>
<octave>4</octave>
</pitch>
<duration>1</duration>
<type>quarter</type>
<lyric>
<syllabic>single</syllabic>
<text>No</text>
</lyric>
</note>
<note>
<pitch>
<step>E</step>
<octave>4</octave>
</pitch>
<duration>1</duration>
<type>quarter</type>
<lyric>
<syllabic>single</syllabic>
<text>ae</text>
</lyric>
</note>
<note>
<pitch>
<step>D</step>
<octave>4</octave>
</pitch>
<duration>1</duration>
<type>quarter</type>
<lyric>
<syllabic>begin</syllabic>
<text>a</text>
</lyric>
</note>
</measure>
<measure number="2">
<note>
<pitch>
<step>C</step>
<octave>4</octave>
</pitch>
<duration>1</duration>
<type>quarter</type>
<lyric>
<syllabic>middle</syllabic>
<text>ha</text>
</lyric>
</note>
<note>
<pitch>
<step>G</step>
<octave>4</octave>
</pitch>
<duration>1</duration>
<type>quarter</type>
<lyric>
<syllabic>end</syllabic>
<text>tö</text>
</lyric>
</note>
<note>
<pitch>
<step>A</step>
<octave>4</octave>
</pitch>
<duration>1</duration>
<type>quarter</type>
<lyric>
<syllabic>begin</syllabic>
<text>ga</text>
</lyric>
</note>
<note>
<pitch>
<step>G</step>
<octave>4</octave>
</pitch>
<duration>1</duration>
<type>quarter</type>
<lyric>
<syllabic>middle</syllabic>
<text>mo</text>
</lyric>
</note>
</measure>
<measure number="3">
<note>
<pitch>
<step>F</step>
<octave>4</octave>
</pitch>
<duration>2</duration>
<type>half</type>
<lyric>
<syllabic>middle</syllabic>
<text>zu</text>
</lyric>
</note>
<note>
<pitch>
<step>E</step>
<octave>4</octave>
</pitch>
<duration>2</duration>
<type>half</type>
<lyric>
<syllabic>end</syllabic>
<text>a,</text>
</lyric>
</note>
</measure>
<measure number="4">
<note>
<rest/>
<duration>1</duration>
<type>quarter</type>
</note>
<note>
<pitch>
<step>G</step>
<octave>4</octave>
</pitch>
<duration>1</duration>
<type>quarter</type>
<lyric>
<syllabic>single</syllabic>
<text>ba</text>
</lyric>
</note>
<note>
<pitch>
<step>A</step>
<octave>4</octave>
</pitch>
<duration>1</duration>
<type>quarter</type>
<lyric>
<syllabic>begin</syllabic>
<text>lö</text>
</lyric>
</note>
<note>
<pitch>
<step>B</step>
<octave>4</octave>
</pitch>
<duration>1</duration>
<type>quarter</type>
<lyric>
<syllabic>end</syllabic>
<text>a</text>
</lyric>
</note>
</measure>
<measure number="5">
<note>
<pitch>
<step>C</step>
<octave>5</octave>
</pitch>
<duration>1</duration>
<type>quarter</type>
<lyric>
<syllabic>single</syllabic>
<text>nau</text>
</lyric>
</note>
<note>
<pitch>
<step>B</step>
<octave>4</octave>
</pitch>
<duration>1</duration>
<type>quarter</type>
<lyric>
<syllabic>single</syllabic>
<text>tö</text>
</lyric>
</note>
<note>
<pitch>
<step>A</step>
<octave>4</octave>
</pitch>
<duration>1</duration>
<type>quarter</type>
<lyric>
<syllabic>begin</syllabic>
<text>no</text>
</lyric>
</note>
<note>
<pitch>
<step>A</step>
<octave>4</octave>
</pitch>
<duration>1</duration>
<type>quarter</type>
<lyric>
<syllabic>middle</syllabic>
<text>so</text>
</lyric>
</note>
</measure>
<measure number="6">
<note>
<pitch>
<step>G</step>
<octave>4</octave>
</pitch>
<duration>4</duration>
<type>whole</type>
<lyric>
<syllabic>end</syllabic>
<text>gu.</text>
</lyric>
</note>
</measure>
<measure number="7">
<note>
<rest/>
<duration>1</duration>
<type>quarter</type>
</note>
<note>
<pitch>
<step>G</step>
<octave>4</octave>
</pitch>
<duration>1</duration>
<type>quarter</type>
<lyric>
<syllabic>single</syllabic>
<text>Ha</text>
</lyric>
</note>
<note>
<pitch>
<step>E</step>
<octave>4</octave>
</pitch>
<duration>1</duration>
<type>quarter</type>
<lyric>
<syllabic>begin</syllabic>
<text>fa'</text>
</lyric>
</note>
<note>
<pitch>
<step>D</step>
<octave>4</octave>
</pitch>
<duration>1</duration>
<type>quarter</type>
<lyric>
<syllabic>middle</syllabic>
<text>a</text>
</lyric>
</note>
</measure>
<measure number="8">
<note>
<pitch>
<step>C</step>
<octave>4</octave>
</pitch>
<duration>1</duration>
<type>quarter</type>
<lyric>
<syllabic>middle</syllabic>
<text>ma</text>
</lyric>
</note>
<note>
<pitch>
<step>G</step>
<octave>4</octave>
</pitch>
<duration>1</duration>
<type>quarter</type>
<lyric>
<syllabic>end</syllabic>
<text>te</text>
</lyric>
</note>
<note>
<pitch>
<step>A</step>
<octave>4</octave>
</pitch>
<duration>1</duration>
<type>quarter</type>
<lyric>
<syllabic>begin</syllabic>
<text>sa</text>
</lyric>
</note>
<note>
<pitch>
<step>G</step>
<octave>4</octave>
</pitch>
<duration>1</duration>
<type>quarter</type>
<lyric>
<syllabic>middle</syllabic>
<text>za</text>
</lyric>
</note>
</measure>
<measure number="9">
<note>
<pitch>
<step>F</step>
<octave>4</octave>
</pitch>
<duration>2</duration>
<type>half</type>
<lyric>
<syllabic>middle</syllabic>
<text>lu</text>
</lyric>
</note>
<note>
<pitch>
<step>E</step>
<octave>4</octave>
</pitch>
<duration>2</duration>
<type>half</type>
<lyric>
<syllabic>end</syllabic>
<text>a,</text>
</lyric>
</note>
</measure>
<measure number="10">
<note>
<rest/>
<duration>1</duration>
<type>quarter</type>
</note>
<note>
<pitch>
<step>G</step>
<octave>4</octave>
</pitch>
<duration>1</duration>
<type>quarter</type>
<lyric>
<syllabic>single</syllabic>
<text>he</text>
</lyric>
</note>
<note>
<pitch>
<step>A</step>
<octave>4</octave>
</pitch>
<duration>1</duration>
<type>quarter</type>
<lyric>
<syllabic>begin</syllabic>
<text>te</text>
</lyric>
</note>
<note>
<pitch>
<step>B</step>
<octave>4</octave>
</pitch>
<duration>1</duration>
<type>quarter</type>
<lyric>
<syllabic>end</syllabic>
<text>nga</text>
</lyric>
</note>
</measure>
<measure number="11">
<note>
<pitch>
<step>C</step>
<octave>5</octave>
</pitch>
<duration>1</duration>
<type>quarter</type>
<lyric>
<syllabic>begin</syllabic>
<text>fa'</text>
</lyric>
</note>
<note>
<pitch>
<step>B</step>
<octave>4</octave>
</pitch>
<duration>1</duration>
<type>quarter</type>
<lyric>
<syllabic>middle</syllabic>
<text>o</text>
</lyric>
</note>
<note>
<pitch>
<step>A</step>
<octave>4</octave>
</pitch>
<duration>1</duration>
<type>quarter</type>
<lyric>
<syllabic>middle</syllabic>
<text>ma</text>
</lyric>
</note>
<note>
<pitch>
<step>A</step>
<octave>4</octave>
</pitch>
<duration>1</duration>
<type>quarter</type>
<lyric>
<syllabic>middle</syllabic>
<text>si</text>
</lyric>
</note>
</measure>
<measure number="12">
<note>
<pitch>
<step>G</step>
<octave>4</octave>
</pitch>
<duration>4</duration>
<type>whole</type>
<lyric>
<syllabic>end</syllabic>
<text>gu.</text>
</lyric>
</note>
</measure>
<measure number="13">
<note>
<rest/>
<duration>1</duration>
<type>quarter</type>
</note>
<note>
<pitch>
<step>G</step>
<octave>4</octave>
</pitch>
<duration>1</duration>
<type>quarter</type>
<lyric>
<syllabic>begin</syllabic>
<text>Ye</text>
</lyric>
</note>
<note>
<pitch>
<step>E</step>
<octave>4</octave>
</pitch>
<duration>2</duration>
<type>half</type>
<lyric>
<syllabic>end</syllabic>
<text>su,</text>
</lyric>
</note>
</measure>
<measure number="14">
<note>
<rest/>
<duration>1</duration>
<type>quarter</type>
</note>
<note>
<pitch>
<step>C</step>
<octave>5</octave>
</pitch>
<duration>1</duration>
<type>quarter</type>
<lyric>
<syllabic>begin</syllabic>
<text>Ye</text>
</lyric>
</note>
<note>
<pitch>
<step>A</step>
<octave>4</octave>
</pitch>
<duration>2</duration>
<type>half</type>
<lyric>
<syllabic>end</syllabic>
<text>su,</text>
</lyric>
</note>
</measure>
<measure number="15">
<note>
<rest/>
<duration>1</duration>
<type>quarter</type>
</note>
<note>
<pitch>
<step>A</step>
<octave>4</octave>
</pitch>
<duration>1</duration>
<type>quarter</type>
<lyric>
<syllabic>begin</syllabic>
<text>da'</text>
</lyric>
</note>
<note>
<pitch>
<step>G</step>
<octave>4</octave>
</pitch>
<duration>1</duration>
<type>quarter</type>
<lyric>
<syllabic>end</syllabic>
<text>ö</text>
</lyric>
</note>
<note>
<pitch>
<step>E</step>
<octave>4</octave>
</pitch>
<duration>1</duration>
<type>quarter</type>
<lyric>
<syllabic>single</syllabic>
<text>ni</text>
</lyric>
</note>
</measure>
<measure number="16">
<note>
<pitch>
<step>F</step>
<octave>4</octave>
</pitch>
<duration>1</duration>
<type>quarter</type>
<lyric>
<syllabic>begin</syllabic>
<text>a</text>
</lyric>
</note>
<note>
<pitch>
<step>G</step>
<octave>4</octave>
</pitch>
<duration>1</duration>
<type>quarter</type>
<lyric>
<syllabic>middle</syllabic>
<text>ndrö</text>
</lyric>
</note>
<note>
<pitch>
<step>E</step>
<octave>4</octave>
</pitch>
<duration>2</duration>
<type>half</type>
<lyric>
<syllabic>end</syllabic>
<text>gu:</text>
</lyric>
</note>
</measure>
<measure number="17">
<note>
<rest/>
<duration>1</duration>
<type>quarter</type>
</note>
<note>
<pitch>
<step>E</step>
<octave>4</octave>
</pitch>
<duration>1</duration>
<type>quarter</type>
<lyric>
<syllabic>begin</syllabic>
<text>Be'</text>
</lyric>
</note>
<note>
<pitch>
<step>D</step>
<octave>4</octave>
</pitch>
<duration>1</duration>
<type>quarter</type>
<lyric>
<syllabic>middle</syllabic>
<text>sö</text>
</lyric>
</note>
<note>
<pitch>
<step>G</step>
<octave>4</octave>
</pitch>
<duration>1</duration>
<type>quarter</type>
<lyric>
<syllabic>end</syllabic>
<text>khi</text>
</lyric>
</note>
</measure>
<measure number="18">
<note>
<pitch>
<step>C</step>
<octave>4</octave>
</pitch>
<duration>1</duration>
<type>quarter</type>
<lyric>
<syllabic>begin</syllabic>
<text>ga</text>
</lyric>
</note>
<note>
<pitch>
<step>F</step>
<octave>4</octave>
</pitch>
<duration>1</duration>
<type>quarter</type>
<lyric>
<syllabic>middle</syllabic>
<text>mo</text>
</lyric>
</note>
<note>
<pitch>
<step>E</step>
<octave>4</octave>
</pitch>
<duration>1</duration>
<type>quarter</type>
<lyric>
<syllabic>middle</syllabic>
<text>zu</text>
</lyric>
</note>
<note>
<pitch>
<step>D</step>
<octave>4</octave>
</pitch>
<duration>1</duration>
<type>quarter</type>
<lyric>
<syllabic>middle</syllabic>
<text>a</text>
</lyric>
</note>
</measure>
<measure number="19">
<note>
<pitch>
<step>C</step>
<octave>4</octave>
</pitch>
<duration>4</duration>
<type>whole</type>
<lyric>
<syllabic>end</syllabic>
<text>gu.</text>
</lyric>
</note>
<barline location="right">
<bar-style>light-heavy</bar-style>
</barline>
</measure>
</part>
</score-partwise>