<?xml version="1.0" encoding="UTF-8"?>
<score-partwise version="4.0">
  <work>
    <work-title>297. BUNGA BA DU'U SA</work-title>
  </work>
  <part-list>
    <score-part id="P1">
      <part-name>Vocal</part-name>
    </score-part>
  </part-list>
  <part id="P1">
    <measure number="1">
      <attributes>
        <divisions>2</divisions>
        <key>
          <fifths>0</fifths>
        </key>
        <time>
          <beats>4</beats>
          <beat-type>4</beat-type>
        </time>
        <clef>
          <sign>G</sign>
          <line>2</line>
        </clef>
      </attributes>
      <direction placement="above">
        <direction-type>
          <metronome>
            <beat-unit>quarter</beat-unit>
            <per-minute>120</per-minute>
          </metronome>
        </direction-type>
        <sound tempo="120"/>
      </direction>
      <note>
        <pitch>
          <step>C</step>
          <octave>4</octave>
        </pitch>
        <duration>2</duration>
        <type>quarter</type>
        <lyric>
          <syllabic>begin</syllabic>
          <text>Bu</text>
        </lyric>
      </note>
    </measure>
    <measure number="2">
      <note>
        <pitch>
          <step>E</step>
          <octave>4</octave>
        </pitch>
        <duration>2</duration>
        <type>quarter</type>
        <lyric>
          <syllabic>end</syllabic>
          <text>nga</text>
        </lyric>
      </note>
      <note>
        <pitch>
          <step>E</step>
          <octave>4</octave>
        </pitch>
        <duration>2</duration>
        <type>quarter</type>
        <lyric>
          <syllabic>single</syllabic>
          <text>ba</text>
        </lyric>
      </note>
      <note>
        <pitch>
          <step>E</step>
          <octave>4</octave>
        </pitch>
        <duration>2</duration>
        <type>quarter</type>
        <lyric>
          <syllabic>begin</syllabic>
          <text>du'</text>
        </lyric>
      </note>
      <note>
        <pitch>
          <step>E</step>
          <octave>4</octave>
        </pitch>
        <duration>2</duration>
        <type>quarter</type>
        <lyric>
          <syllabic>end</syllabic>
          <text>u</text>
        </lyric>
      </note>
    </measure>
    <measure number="3">
      <note>
        <pitch>
          <step>D</step>
          <octave>4</octave>
        </pitch>
        <duration>4</duration>
        <type>half</type>
        <lyric>
          <syllabic>single</syllabic>
          <text>sa,</text>
        </lyric>
      </note>
      <note>
        <rest/>
        <duration>2</duration>
        <type>quarter</type>
      </note>
      <note>
        <pitch>
          <step>D</step>
          <octave>4</octave>
        </pitch>
        <duration>2</duration>
        <type>quarter</type>
        <lyric>
          <syllabic>begin</syllabic>
          <text>a</text>
        </lyric>
      </note>
    </measure>
    <measure number="4">
      <note>
        <pitch>
          <step>F</step>
          <octave>4</octave>
        </pitch>
        <duration>2</duration>
        <type>quarter</type>
        <lyric>
          <syllabic>middle</syllabic>
          <text>le</text>
        </lyric>
      </note>
      <note>
        <pitch>
          <step>F</step>
          <octave>4</octave>
        </pitch>
        <duration>2</duration>
        <type>quarter</type>
        <lyric>
          <syllabic>end</syllabic>
          <text>u</text>
        </lyric>
      </note>
      <note>
        <pitch>
          <step>F</step>
          <octave>4</octave>
        </pitch>
        <duration>1</duration>
        <type>eighth</type>
        <notations>
          <slur type="start" number="1"/>
          <beam number="1">begin</beam>
        </notations>
        <lyric>
          <syllabic>begin</syllabic>
          <text>lö'</text>
        </lyric>
      </note>
      <note>
        <pitch>
          <step>A</step>
          <octave>4</octave>
        </pitch>
        <duration>1</duration>
        <type>eighth</type>
        <notations>
          <slur type="stop" number="1"/>
          <beam number="1">end</beam>
        </notations>
      </note>
      <note>
        <pitch>
          <step>G</step>
          <octave>4</octave>
        </pitch>
        <duration>1</duration>
        <type>eighth</type>
        <notations>
          <slur type="start" number="2"/>
          <beam number="2">begin</beam>
        </notations>
        <lyric>
          <syllabic>end</syllabic>
          <text>a</text>
        </lyric>
      </note>
      <note>
        <pitch>
          <step>F</step>
          <octave>4</octave>
        </pitch>
        <duration>1</duration>
        <type>eighth</type>
        <notations>
          <slur type="stop" number="2"/>
          <beam number="2">end</beam>
        </notations>
      </note>
    </measure>
    <measure number="5">
      <note>
        <pitch>
          <step>E</step>
          <octave>4</octave>
        </pitch>
        <duration>4</duration>
        <type>half</type>
        <lyric>
          <syllabic>single</syllabic>
          <text>ra,</text>
        </lyric>
      </note>
      <note>
        <rest/>
        <duration>2</duration>
        <type>quarter</type>
      </note>
      <note>
        <pitch>
          <step>E</step>
          <octave>4</octave>
        </pitch>
        <duration>1</duration>
        <type>eighth</type>
        <notations>
          <slur type="start" number="1"/>
          <beam number="1">begin</beam>
        </notations>
        <lyric>
          <syllabic>begin</syllabic>
          <text>ma</text>
        </lyric>
      </note>
      <note>
        <pitch>
          <step>F</step>
          <octave>4</octave>
        </pitch>
        <duration>1</duration>
        <type>eighth</type>
        <notations>
          <slur type="stop" number="1"/>
          <beam number="1">end</beam>
        </notations>
      </note>
    </measure>
    <measure number="6">
      <note>
        <pitch>
          <step>G</step>
          <octave>4</octave>
        </pitch>
        <duration>2</duration>
        <type>quarter</type>
        <lyric>
          <syllabic>end</syllabic>
          <text>nö</text>
        </lyric>
      </note>
      <note>
        <pitch>
          <step>F</step>
          <octave>4</octave>
        </pitch>
        <duration>1</duration>
        <type>eighth</type>
        <notations>
          <slur type="start" number="1"/>
          <beam number="1">begin</beam>
        </notations>
        <lyric>
          <syllabic>begin</syllabic>
          <text>fe</text>
        </lyric>
      </note>
      <note>
        <pitch>
          <step>E</step>
          <octave>4</octave>
        </pitch>
        <duration>1</duration>
        <type>eighth</type>
        <notations>
          <slur type="stop" number="1"/>
          <beam number="1">end</beam>
        </notations>
      </note>
      <note>
        <pitch>
          <step>C</step>
          <octave>4</octave>
        </pitch>
        <duration>2</duration>
        <type>quarter</type>
        <lyric>
          <syllabic>end</syllabic>
          <text>fu</text>
        </lyric>
      </note>
      <note>
        <pitch>
          <step>A</step>
          <octave>4</octave>
        </pitch>
        <duration>2</duration>
        <type>quarter</type>
        <lyric>
          <syllabic>single</syllabic>
          <text>ba</text>
        </lyric>
      </note>
    </measure>
    <measure number="7">
      <note>
        <pitch>
          <step>A</step>
          <octave>4</octave>
        </pitch>
        <duration>3</duration>
        <type>quarter</type>
        <dot/>
        <notations>
          <slur type="start" number="1"/>
        </notations>
        <lyric>
          <syllabic>begin</syllabic>
          <text>da</text>
        </lyric>
      </note>
      <note>
        <pitch>
          <step>G</step>
          <octave>4</octave>
        </pitch>
        <duration>1</duration>
        <type>eighth</type>
        <notations>
          <slur type="stop" number="1"/>
        </notations>
      </note>
      <note>
        <pitch>
          <step>G</step>
          <octave>4</octave>
        </pitch>
        <duration>2</duration>
        <type>quarter</type>
        <notations>
          <articulations>
            <breath-mark/>
          </articulations>
        </notations>
        <lyric>
          <syllabic>end</syllabic>
          <text>nö</text>
        </lyric>
      </note>
      <note>
        <pitch>
          <step>E</step>
          <octave>4</octave>
        </pitch>
        <duration>2</duration>
        <type>quarter</type>
        <lyric>
          <syllabic>single</syllabic>
          <text>da, he</text>
        </lyric>
      </note>
    </measure>
    <measure number="8">
      <note>
        <pitch>
          <step>E</step>
          <octave>4</octave>
        </pitch>
        <duration>2</duration>
        <type>quarter</type>
        <lyric>
          <syllabic>single</syllabic>
          <text>sö</text>
        </lyric>
      </note>
      <note>
        <pitch>
          <step>D</step>
          <octave>4</octave>
        </pitch>
        <duration>2</duration>
        <type>quarter</type>
        <lyric>
          <syllabic>single</syllabic>
          <text>khi</text>
        </lyric>
      </note>
      <note>
        <pitch>
          <step>D</step>
          <octave>4</octave>
        </pitch>
        <duration>1</duration>
        <type>eighth</type>
        <notations>
          <slur type="start" number="1"/>
          <beam number="1">begin</beam>
        </notations>
        <lyric>
          <syllabic>begin</syllabic>
          <text>sa</text>
        </lyric>
      </note>
      <note>
        <pitch>
          <step>A</step>
          <octave>4</octave>
        </pitch>
        <duration>1</duration>
        <type>eighth</type>
        <notations>
          <slur type="stop" number="1"/>
          <beam number="1">end</beam>
        </notations>
      </note>
      <note>
        <pitch>
          <step>G</step>
          <octave>4</octave>
        </pitch>
        <duration>1</duration>
        <type>eighth</type>
        <notations>
          <slur type="start" number="2"/>
          <beam number="2">begin</beam>
        </notations>
        <lyric>
          <syllabic>end</syllabic>
          <text>ba</text>
        </lyric>
      </note>
      <note>
        <pitch>
          <step>F</step>
          <octave>4</octave>
        </pitch>
        <duration>1</duration>
        <type>eighth</type>
        <notations>
          <slur type="stop" number="2"/>
          <beam number="2">end</beam>
        </notations>
      </note>
    </measure>
    <measure number="9">
      <note>
        <pitch>
          <step>F</step>
          <octave>4</octave>
        </pitch>
        <duration>4</duration>
        <type>half</type>
        <lyric>
          <syllabic>single</syllabic>
          <text>lö</text>
        </lyric>
      </note>
      <note>
        <pitch>
          <step>E</step>
          <octave>4</octave>
        </pitch>
        <duration>2</duration>
        <type>quarter</type>
        <lyric>
          <syllabic>begin</syllabic>
          <text>a</text>
        </lyric>
      </note>
      <note>
        <pitch>
          <step>E</step>
          <octave>4</octave>
        </pitch>
        <duration>2</duration>
        <type>quarter</type>
        <notations>
          <articulations>
            <breath-mark/>
          </articulations>
        </notations>
        <lyric>
          <syllabic>end</syllabic>
          <text>ra.</text>
        </lyric>
      </note>
      <note>
        <pitch>
          <step>C</step>
          <octave>4</octave>
        </pitch>
        <duration>1</duration>
        <type>eighth</type>
        <notations>
          <slur type="start" number="1"/>
          <beam number="1">begin</beam>
        </notations>
        <lyric>
          <syllabic>single</syllabic>
          <text>Si</text>
        </lyric>
      </note>
      <note>
        <pitch>
          <step>E</step>
          <octave>4</octave>
        </pitch>
        <duration>1</duration>
        <type>eighth</type>
        <notations>
          <slur type="stop" number="1"/>
          <beam number="1">end</beam>
        </notations>
      </note>
    </measure>
    <measure number="10">
      <note>
        <pitch>
          <step>G</step>
          <octave>4</octave>
        </pitch>
        <duration>4</duration>
        <type>half</type>
        <lyric>
          <syllabic>begin</syllabic>
          <text>ta</text>
        </lyric>
      </note>
      <note>
        <pitch>
          <step>F</step>
          <octave>4</octave>
        </pitch>
        <duration>4</duration>
        <type>half</type>
        <lyric>
          <syllabic>end</syllabic>
          <text>ya</text>
        </lyric>
      </note>
    </measure>
    <measure number="11">
      <note>
        <pitch>
          <step>E</step>
          <octave>4</octave>
        </pitch>
        <duration>4</duration>
        <type>half</type>
        <lyric>
          <syllabic>single</syllabic>
          <text>sa,</text>
        </lyric>
      </note>
      <note>
        <rest/>
        <duration>2</duration>
        <type>quarter</type>
      </note>
      <note>
        <pitch>
          <step>C</step>
          <octave>4</octave>
        </pitch>
        <duration>1</duration>
        <type>eighth</type>
        <notations>
          <slur type="start" number="1"/>
          <beam number="1">begin</beam>
        </notations>
        <lyric>
          <syllabic>single</syllabic>
          <text>si</text>
        </lyric>
      </note>
      <note>
        <pitch>
          <step>E</step>
          <octave>4</octave>
        </pitch>
        <duration>1</duration>
        <type>eighth</type>
        <notations>
          <slur type="stop" number="1"/>
          <beam number="1">end</beam>
        </notations>
      </note>
    </measure>
    <measure number="12">
      <note>
        <pitch>
          <step>G</step>
          <octave>4</octave>
        </pitch>
        <duration>4</duration>
        <type>half</type>
        <lyric>
          <syllabic>begin</syllabic>
          <text>ta</text>
        </lyric>
      </note>
      <note>
        <pitch>
          <step>F</step>
          <octave>4</octave>
        </pitch>
        <duration>4</duration>
        <type>half</type>
        <lyric>
          <syllabic>end</syllabic>
          <text>ya</text>
        </lyric>
      </note>
    </measure>
    <measure number="13">
      <note>
        <pitch>
          <step>E</step>
          <octave>4</octave>
        </pitch>
        <duration>4</duration>
        <type>half</type>
        <lyric>
          <syllabic>single</syllabic>
          <text>sa.</text>
        </lyric>
      </note>
      <note>
        <rest/>
        <duration>2</duration>
        <type>quarter</type>
      </note>
      <barline location="right">
        <bar-style>light-heavy</bar-style>
      </barline>
    </measure>
  </part>
</score-partwise>