<?xml version="1.0" encoding="UTF-8"?>
<score-partwise version="4.0">
  <work><work-title>2. Suno Zo'aya Samati Khö-Nia</work-title></work>
  <part-list>
    <score-part id="P1"><part-name>Piano</part-name></score-part>
  </part-list>
  <part id="P1">
    <measure number="1">
      <attributes>
        <divisions>4</divisions>
        <key><fifths>0</fifths></key>
        <time><beats>4</beats><beat-type>4</beat-type></time>
        <clef><sign>G</sign><line>2</line></clef>
      </attributes>
      <note><pitch><step>G</step><octave>4</octave></pitch><duration>4</duration><type>quarter</type><lyric><text>Su-</text></lyric></note>
      <note><pitch><step>G</step><octave>4</octave></pitch><duration>4</duration><type>quarter</type><lyric><text>no</text></lyric></note>
      <note><pitch><step>C</step><octave>5</octave></pitch><duration>4</duration><type>quarter</type><lyric><text>Zo'</text></lyric></note>
      <note><pitch><step>B</step><octave>4</octave></pitch><duration>4</duration><type>quarter</type><lyric><text>a-</text></lyric></note>
    </measure>

    <measure number="2">
      <note><pitch><step>A</step><octave>4</octave></pitch><duration>8</duration><type>half</type><lyric><text>ya</text></lyric></note>
      <note><pitch><step>G</step><octave>4</octave></pitch><duration>8</duration><type>half</type></note>
    </measure>

    <measure number="3">
      <note><pitch><step>E</step><octave>4</octave></pitch><duration>4</duration><type>quarter</type><lyric><text>sa-</text></lyric></note>
      <note><pitch><step>F</step><octave>4</octave></pitch><duration>4</duration><type>quarter</type><lyric><text>ma-</text></lyric></note>
      <note><pitch><step>G</step><octave>4</octave></pitch><duration>4</duration><type>quarter</type><lyric><text>ti</text></lyric></note>
      <note><pitch><step>G</step><octave>4</octave></pitch><duration>4</duration><type>quarter</type><lyric><text>khö-</text></lyric></note>
    </measure>

    <measure number="4">
      <note><pitch><step>F</step><octave>4</octave></pitch><duration>8</duration><type>half</type><lyric><text>Ni-</text></lyric></note>
      <note><pitch><step>E</step><octave>4</octave></pitch><duration>8</duration><type>half</type><lyric><text>a,</text></lyric></note>
    </measure>

    <measure number="5">
      <note><pitch><step>G</step><octave>4</octave></pitch><duration>2</duration><type>eighth</type><beam number="1">begin</beam><lyric><text>ae</text></lyric></note>
      <note><pitch><step>A</step><octave>4</octave></pitch><duration>2</duration><type>eighth</type><beam number="1">end</beam><lyric><text>o-</text></lyric></note>
      <note><pitch><step>B</step><octave>4</octave></pitch><duration>4</duration><type>quarter</type><lyric><text>mu-</text></lyric></note>
      <note><pitch><step>C</step><octave>5</octave></pitch><duration>8</duration><type>half</type></note>
    </measure>

    <measure number="6">
      <note><pitch><step>C</step><octave>5</octave></pitch><duration>8</duration><type>half</type><lyric><text>soi'</text></lyric></note>
      <note><pitch><step>A</step><octave>4</octave></pitch><duration>8</duration><type>half</type><lyric><text>ö</text></lyric></note>
    </measure>

    <measure number="7">
      <note><pitch><step>B</step><octave>4</octave></pitch><duration>4</duration><type>quarter</type><lyric><text>dö-</text></lyric></note>
      <note><pitch><step>C</step><octave>5</octave></pitch><duration>4</duration><type>quarter</type><lyric><text>dö-</text></lyric></note>
      <note><pitch><step>D</step><octave>5</octave></pitch><duration>4</duration><type>quarter</type><lyric><text>mö</text></lyric></note>
      <note><pitch><step>G</step><octave>4</octave></pitch><duration>4</duration><type>quarter</type><lyric><text>wa-</text></lyric></note>
    </measure>

    <measure number="8">
      <note><pitch><step>A</step><octave>4</octave></pitch><duration>8</duration><type>half</type><lyric><text>nu-</text></lyric></note>
      <note><pitch><step>G</step><octave>4</octave></pitch><duration>8</duration><type>half</type><lyric><text>no.</text></lyric></note>
    </measure>

    <measure number="9">
      <note><pitch><step>E</step><octave>4</octave></pitch><duration>8</duration><type>half</type><lyric><text>Wa-</text></lyric></note>
      <note><pitch><step>D</step><octave>4</octave></pitch><duration>4</duration><type>quarter</type><lyric><text>nge-</text></lyric></note>
      <note><pitch><step>C</step><octave>4</octave></pitch><duration>4</duration><type>quarter</type><lyric><text>bu-</text></lyric></note>
    </measure>

    <measure number="10">
      <note><pitch><step>G</step><octave>4</octave></pitch><duration>8</duration><type>half</type><lyric><text>a'</text></lyric></note>
      <note><pitch><step>G</step><octave>4</octave></pitch><duration>8</duration><type>half</type><lyric><text>ö</text></lyric></note>
    </measure>

    <measure number="11">
      <note><pitch><step>A</step><octave>4</octave></pitch><duration>4</duration><type>quarter</type><lyric><text>fon-</text></lyric></note>
      <note><pitch><step>C</step><octave>5</octave></pitch><duration>4</duration><type>quarter</type><lyric><text>dre-</text></lyric></note>
      <note><pitch><step>B</step><octave>4</octave></pitch><duration>4</duration><type>quarter</type><lyric><text>ge</text></lyric></note>
      <note><pitch><step>A</step><octave>4</octave></pitch><duration>4</duration><type>quarter</type><lyric><text>Za-</text></lyric></note>
    </measure>

    <measure number="12">
      <note><pitch><step>A</step><octave>4</octave></pitch><duration>2</duration><type>eighth</type><beam number="1">begin</beam><notations><slur type="start" number="1"/></notations><lyric><text>la-</text></lyric></note>
      <note><pitch><step>G</step><octave>4</octave></pitch><duration>2</duration><type>eighth</type><beam number="1">end</beam><notations><slur type="stop" number="1"/></notations></note>
      <note><pitch><step>A</step><octave>4</octave></pitch><duration>12</duration><type>half</type><dot/><lyric><text>wâ,</text></lyric></note>
    </measure>

    <measure number="13">
      <note><pitch><step>G</step><octave>4</octave></pitch><duration>8</duration><type>half</type><lyric><text>su-</text></lyric></note>
      <note><pitch><step>F</step><octave>4</octave></pitch><duration>4</duration><type>quarter</type><lyric><text>no</text></lyric></note>
      <note><pitch><step>E</step><octave>4</octave></pitch><duration>4</duration><type>quarter</type><lyric><text>Zo'</text></lyric></note>
    </measure>

    <measure number="14">
      <note><pitch><step>D</step><octave>4</octave></pitch><duration>8</duration><type>half</type><lyric><text>a-</text></lyric></note>
      <note><pitch><step>C</step><octave>4</octave></pitch><duration>8</duration><type>half</type><lyric><text>ya.</text></lyric></note>
      <barline location="right"><bar-style>light-heavy</bar-style></barline>
    </measure>
  </part>
</score-partwise>