<?xml version="1.0" encoding="UTF-8"?>

<score-partwise version="4.0">
<work>
<work-title>306. HEZA MÖI AMI MUKOLI</work-title>
</work>
<part-list>
<score-part id="P1">
<part-name>Vocal</part-name>
</score-part>
</part-list>
<part id="P1">
<measure number="1">
<attributes>
<divisions>4</divisions>
<key>
<fifths>0</fifths>
</key>
<time>
<beats>3</beats>
<beat-type>4</beat-type>
</time>
<clef>
<sign>G</sign>
<line>2</line>
</clef>
</attributes>
<direction placement="above">
<direction-type>
<metronome>
<beat-unit>quarter</beat-unit>
<per-minute>120</per-minute>
</metronome>
</direction-type>
<sound tempo="120"/>
</direction>
<note>
<pitch>
<step>E</step>
<octave>4</octave>
</pitch>
<duration>3</duration>
<type>eighth</type>
<dot/>
<notations>
<slur type="start" number="1"/>
<beam number="1">begin</beam>
</notations>
<lyric>
<syllabic>begin</syllabic>
<text>1. He</text>
</lyric>
</note>
<note>
<pitch>
<step>F</step>
<octave>4</octave>
</pitch>
<duration>1</duration>
<type>16th</type>
<notations>
<slur type="stop" number="1"/>
<beam number="1">end</beam>
<beam number="2">backward hook</beam>
</notations>
<lyric>
<syllabic>end</syllabic>
<text>za</text>
</lyric>
</note>
</measure>
<measure number="2">
<note>
<pitch>
<step>G</step>
<octave>4</octave>
</pitch>
<duration>8</duration>
<type>half</type>
<lyric>
<syllabic>single</syllabic>
<text>möi</text>
</lyric>
</note>
<note>
<pitch>
<step>C</step>
<octave>5</octave>
</pitch>
<duration>3</duration>
<type>eighth</type>
<dot/>
<notations>
<slur type="start" number="1"/>
<beam number="1">begin</beam>
</notations>
<lyric>
<syllabic>begin</syllabic>
<text>a</text>
</lyric>
</note>
<note>
<pitch>
<step>B</step>
<octave>4</octave>
</pitch>
<duration>1</duration>
<type>16th</type>
<notations>
<slur type="stop" number="1"/>
<beam number="1">end</beam>
<beam number="2">backward hook</beam>
</notations>
<lyric>
<syllabic>end</syllabic>
<text>mi</text>
</lyric>
</note>
</measure>
<measure number="3">
<note>
<pitch>
<step>B</step>
<octave>4</octave>
</pitch>
<duration>4</duration>
<type>quarter</type>
<lyric>
<syllabic>begin</syllabic>
<text>mu</text>
</lyric>
</note>
<note>
<pitch>
<step>A</step>
<octave>4</octave>
</pitch>
<duration>4</duration>
<type>quarter</type>
<lyric>
<syllabic>middle</syllabic>
<text>ko</text>
</lyric>
</note>
<note>
<pitch>
<step>F</step>
<octave>4</octave>
</pitch>
<duration>3</duration>
<type>eighth</type>
<dot/>
<notations>
<slur type="start" number="1"/>
<beam number="1">begin</beam>
</notations>
<lyric>
<syllabic>end</syllabic>
<text>li,</text>
</lyric>
</note>
<note>
<pitch>
<step>E</step>
<octave>4</octave>
</pitch>
<duration>1</duration>
<type>16th</type>
<notations>
<slur type="stop" number="1"/>
<beam number="1">end</beam>
<beam number="2">backward hook</beam>
</notations>
</note>
</measure>
<measure number="4">
<note>
<pitch>
<step>D</step>
<octave>4</octave>
</pitch>
<duration>8</duration>
<type>half</type>
<lyric>
<syllabic>begin</syllabic>
<text>faö</text>
</lyric>
</note>
<note>
<pitch>
<step>D</step>
<octave>4</octave>
</pitch>
<duration>4</duration>
<type>quarter</type>
<lyric>
<syllabic>end</syllabic>
<text>ga</text>
</lyric>
</note>
</measure>
<measure number="5">
<note>
<pitch>
<step>G</step>
<octave>4</octave>
</pitch>
<duration>4</duration>
<type>quarter</type>
<notations>
<slur type="start" number="1"/>
</notations>
<lyric>
<syllabic>begin</syllabic>
<text>hö</text>
</lyric>
</note>
<note>
<pitch>
<step>F</step>
<octave>4</octave>
</pitch>
<duration>4</duration>
<type>quarter</type>
<notations>
<slur type="stop" number="1"/>
</notations>
<lyric>
<syllabic>middle</syllabic>
<text>rö</text>
</lyric>
</note>
<note>
<pitch>
<step>D</step>
<octave>4</octave>
</pitch>
<duration>4</duration>
<type>quarter</type>
<lyric>
<syllabic>end</syllabic>
<text>mi,</text>
</lyric>
</note>
</measure>
<measure number="6">
<note>
<pitch>
<step>E</step>
<octave>4</octave>
</pitch>
<duration>4</duration>
<type>quarter</type>
<lyric>
<syllabic>begin</syllabic>
<text>möi</text>
</lyric>
</note>
<note>
<rest/>
<duration>4</duration>
<type>quarter</type>
</note>
<note>
<pitch>
<step>E</step>
<octave>4</octave>
</pitch>
<duration>3</duration>
<type>eighth</type>
<dot/>
<notations>
<slur type="start" number="1"/>
<beam number="1">begin</beam>
</notations>
<lyric>
<syllabic>end</syllabic>
<text>ga</text>
</lyric>
</note>
<note>
<pitch>
<step>F</step>
<octave>4</octave>
</pitch>
<duration>1</duration>
<type>16th</type>
<notations>
<slur type="stop" number="1"/>
<beam number="1">end</beam>
<beam number="2">backward hook</beam>
</notations>
</note>
</measure>
<measure number="7">
<note>
<pitch>
<step>G</step>
<octave>4</octave>
</pitch>
<duration>8</duration>
<type>half</type>
<lyric>
<syllabic>begin</syllabic>
<text>ya</text>
</lyric>
</note>
<note>
<pitch>
<step>G</step>
<octave>4</octave>
</pitch>
<duration>4</duration>
<type>quarter</type>
<lyric>
<syllabic>end</syllabic>
<text>wâ</text>
</lyric>
</note>
</measure>
<measure number="8">
<note>
<rest/>
<duration>4</duration>
<type>quarter</type>
</note>
<note>
<rest/>
<duration>4</duration>
<type>quarter</type>
</note>
<note>
<pitch>
<step>C</step>
<octave>5</octave>
</pitch>
<duration>3</duration>
<type>eighth</type>
<dot/>
<notations>
<slur type="start" number="1"/>
<beam number="1">begin</beam>
</notations>
<lyric>
<syllabic>single</syllabic>
<text>ba</text>
</lyric>
</note>
<note>
<pitch>
<step>C</step>
<octave>5</octave>
</pitch>
<duration>1</duration>
<type>16th</type>
<notations>
<slur type="stop" number="1"/>
<beam number="1">end</beam>
<beam number="2">backward hook</beam>
</notations>
</note>
</measure>
<measure number="9">
<note>
<pitch>
<step>C</step>
<octave>5</octave>
</pitch>
<duration>4</duration>
<type>quarter</type>
<lyric>
<syllabic>begin</syllabic>
<text>mba</text>
</lyric>
</note>
<note>
<pitch>
<step>A</step>
<octave>4</octave>
</pitch>
<duration>4</duration>
<type>quarter</type>
<lyric>
<syllabic>middle</syllabic>
<text>nu</text>
</lyric>
</note>
<note>
<pitch>
<step>D</step>
<octave>4</octave>
</pitch>
<duration>3</duration>
<type>eighth</type>
<dot/>
<notations>
<slur type="start" number="1"/>
<beam number="1">begin</beam>
</notations>
<lyric>
<syllabic>end</syllabic>
<text>a,</text>
</lyric>
</note>
<note>
<pitch>
<step>C</step>
<octave>5</octave>
</pitch>
<duration>1</duration>
<type>16th</type>
<notations>
<slur type="stop" number="1"/>
<beam number="1">end</beam>
<beam number="2">backward hook</beam>
</notations>
</note>
</measure>
<measure number="10">
<note>
<pitch>
<step>B</step>
<octave>4</octave>
</pitch>
<duration>8</duration>
<type>half</type>
<lyric>
<syllabic>begin</syllabic>
<text>si</text>
</lyric>
</note>
<note>
<pitch>
<step>B</step>
<octave>4</octave>
</pitch>
<duration>4</duration>
<type>quarter</type>
<lyric>
<syllabic>end</syllabic>
<text>so</text>
</lyric>
</note>
</measure>
<measure number="11">
<note>
<pitch>
<step>B</step>
<octave>4</octave>
</pitch>
<duration>2</duration>
<type>eighth</type>
<notations>
<slur type="start" number="1"/>
<beam number="1">begin</beam>
</notations>
<lyric>
<syllabic>begin</syllabic>
<text>fa</text>
</lyric>
</note>
<note>
<pitch>
<step>A</step>
<octave>4</octave>
</pitch>
<duration>2</duration>
<type>eighth</type>
<notations>
<slur type="stop" number="1"/>
<beam number="1">end</beam>
</notations>
<lyric>
<syllabic>middle</syllabic>
<text>ngo</text>
</lyric>
</note>
<note>
<pitch>
<step>B</step>
<octave>4</octave>
</pitch>
<duration>8</duration>
<type>half</type>
<notations>
<fermata type="upright"/>
</notations>
<lyric>
<syllabic>end</syllabic>
<text>ri</text>
</lyric>
</note>
</measure>
<measure number="12">
<note>
<pitch>
<step>C</step>
<octave>5</octave>
</pitch>
<duration>4</duration>
<type>quarter</type>
<lyric>
<syllabic>single</syllabic>
<text>- i,</text>
</lyric>
</note>
<note>
<rest/>
<duration>4</duration>
<type>quarter</type>
</note>
<note>
<pitch>
<step>A</step>
<octave>4</octave>
</pitch>
<duration>3</duration>
<type>eighth</type>
<dot/>
<notations>
<slur type="start" number="1"/>
<beam number="1">begin</beam>
</notations>
<lyric>
<syllabic>begin</syllabic>
<text>sa</text>
</lyric>
</note>
<note>
<pitch>
<step>G</step>
<octave>4</octave>
</pitch>
<duration>1</duration>
<type>16th</type>
<notations>
<slur type="stop" number="1"/>
<beam number="1">end</beam>
<beam number="2">backward hook</beam>
</notations>
<lyric>
<syllabic>end</syllabic>
<text>nu'</text>
</lyric>
</note>
</measure>
<measure number="13">
<note>
<pitch>
<step>G</step>
<octave>4</octave>
</pitch>
<duration>4</duration>
<type>quarter</type>
<lyric>
<syllabic>begin</syllabic>
<text>e</text>
</lyric>
</note>
<note>
<pitch>
<step>D</step>
<octave>4</octave>
</pitch>
<duration>4</duration>
<type>quarter</type>
<lyric>
<syllabic>end</syllabic>
<text>li</text>
</lyric>
</note>
<note>
<pitch>
<step>B</step>
<octave>4</octave>
</pitch>
<duration>3</duration>
<type>eighth</type>
<dot/>
<notations>
<slur type="start" number="1"/>
<beam number="1">begin</beam>
</notations>
<lyric>
<syllabic>begin</syllabic>
<text>ba</text>
</lyric>
</note>
<note>
<pitch>
<step>B</step>
<octave>4</octave>
</pitch>
<duration>1</duration>
<type>16th</type>
<notations>
<slur type="stop" number="1"/>
<beam number="1">end</beam>
<beam number="2">backward hook</beam>
</notations>
<lyric>
<syllabic>end</syllabic>
<text>sa</text>
</lyric>
</note>
</measure>
<measure number="14">
<note>
<pitch>
<step>C</step>
<octave>5</octave>
</pitch>
<duration>4</duration>
<type>quarter</type>
<lyric>
<syllabic>begin</syllabic>
<text>nö</text>
</lyric>
</note>
<note>
<pitch>
<step>E</step>
<octave>4</octave>
</pitch>
<duration>4</duration>
<type>quarter</type>
<lyric>
<syllabic>end</syllabic>
<text>sö,</text>
</lyric>
</note>
<note>
<pitch>
<step>A</step>
<octave>4</octave>
</pitch>
<duration>3</duration>
<type>eighth</type>
<dot/>
<notations>
<slur type="start" number="1"/>
<beam number="1">begin</beam>
</notations>
<lyric>
<syllabic>begin</syllabic>
<text>la</text>
</lyric>
</note>
<note>
<pitch>
<step>G</step>
<octave>4</octave>
</pitch>
<duration>1</duration>
<type>16th</type>
<notations>
<slur type="stop" number="1"/>
<beam number="1">end</beam>
<beam number="2">backward hook</beam>
</notations>
<lyric>
<syllabic>end</syllabic>
<text>la</text>
</lyric>
</note>
</measure>
<measure number="15">
<note>
<pitch>
<step>G</step>
<octave>4</octave>
</pitch>
<duration>4</duration>
<type>quarter</type>
<lyric>
<syllabic>begin</syllabic>
<text>gu</text>
</lyric>
</note>
<note>
<pitch>
<step>D</step>
<octave>4</octave>
</pitch>
<duration>4</duration>
<type>quarter</type>
<lyric>
<syllabic>end</syllabic>
<text>li</text>
</lyric>
</note>
<note>
<pitch>
<step>B</step>
<octave>4</octave>
</pitch>
<duration>3</duration>
<type>eighth</type>
<dot/>
<notations>
<slur type="start" number="1"/>
<beam number="1">begin</beam>
</notations>
<lyric>
<syllabic>begin</syllabic>
<text>da</text>
</lyric>
</note>
<note>
<pitch>
<step>B</step>
<octave>4</octave>
</pitch>
<duration>1</duration>
<type>16th</type>
<notations>
<slur type="stop" number="1"/>
<beam number="1">end</beam>
<beam number="2">backward hook</beam>
</notations>
<lyric>
<syllabic>end</syllabic>
<text>nö</text>
</lyric>
</note>
</measure>
<measure number="16">
<note>
<pitch>
<step>C</step>
<octave>5</octave>
</pitch>
<duration>4</duration>
<type>quarter</type>
<lyric>
<syllabic>single</syllabic>
<text>i,</text>
</lyric>
</note>
<note>
<rest/>
<duration>4</duration>
<type>quarter</type>
</note>
<note>
<pitch>
<step>E</step>
<octave>4</octave>
</pitch>
<duration>3</duration>
<type>eighth</type>
<dot/>
<notations>
<slur type="start" number="1"/>
<beam number="1">begin</beam>
</notations>
<lyric>
<syllabic>single</syllabic>
<text>Ba</text>
</lyric>
</note>
<note>
<pitch>
<step>F</step>
<octave>4</octave>
</pitch>
<duration>1</duration>
<type>16th</type>
<notations>
<slur type="stop" number="1"/>
<beam number="1">end</beam>
<beam number="2">backward hook</beam>
</notations>
</note>
</measure>
<measure number="17">
<note>
<pitch>
<step>G</step>
<octave>4</octave>
</pitch>
<duration>8</duration>
<type>half</type>
<lyric>
<syllabic>begin</syllabic>
<text>ma</text>
</lyric>
</note>
<note>
<pitch>
<step>G</step>
<octave>4</octave>
</pitch>
<duration>4</duration>
<type>quarter</type>
<lyric>
<syllabic>end</syllabic>
<text>tö</text>
</lyric>
</note>
</measure>
<measure number="18">
<note>
<rest/>
<duration>4</duration>
<type>quarter</type>
</note>
<note>
<rest/>
<duration>4</duration>
<type>quarter</type>
</note>
<note>
<pitch>
<step>C</step>
<octave>5</octave>
</pitch>
<duration>3</duration>
<type>eighth</type>
<dot/>
<notations>
<slur type="start" number="1"/>
<beam number="1">begin</beam>
</notations>
<lyric>
<syllabic>single</syllabic>
<text>rö</text>
</lyric>
</note>
<note>
<pitch>
<step>C</step>
<octave>5</octave>
</pitch>
<duration>1</duration>
<type>16th</type>
<notations>
<slur type="stop" number="1"/>
<beam number="1">end</beam>
<beam number="2">backward hook</beam>
</notations>
</note>
</measure>
<measure number="19">
<note>
<pitch>
<step>C</step>
<octave>5</octave>
</pitch>
<duration>4</duration>
<type>quarter</type>
<lyric>
<syllabic>begin</syllabic>
<text>ba</text>
</lyric>
</note>
<note>
<pitch>
<step>A</step>
<octave>4</octave>
</pitch>
<duration>4</duration>
<type>quarter</type>
<lyric>
<syllabic>end</syllabic>
<text>ma</text>
</lyric>
</note>
<note>
<pitch>
<step>D</step>
<octave>4</octave>
</pitch>
<duration>3</duration>
<type>eighth</type>
<dot/>
<notations>
<slur type="start" number="1"/>
<beam number="1">begin</beam>
</notations>
<lyric>
<syllabic>begin</syllabic>
<text>taö</text>
</lyric>
</note>
<note>
<pitch>
<step>C</step>
<octave>5</octave>
</pitch>
<duration>1</duration>
<type>16th</type>
<notations>
<slur type="stop" number="1"/>
<beam number="1">end</beam>
<beam number="2">backward hook</beam>
</notations>
<lyric>
<syllabic>end</syllabic>
<text>gö,</text>
</lyric>
</note>
</measure>
<measure number="20">
<note>
<pitch>
<step>B</step>
<octave>4</octave>
</pitch>
<duration>8</duration>
<type>half</type>
<lyric>
<syllabic>begin</syllabic>
<text>fao</text>
</lyric>
</note>
<note>
<pitch>
<step>B</step>
<octave>4</octave>
</pitch>
<duration>4</duration>
<type>quarter</type>
<lyric>
<syllabic>end</syllabic>
<text>sa</text>
</lyric>
</note>
</measure>
<measure number="21">
<note>
<pitch>
<step>B</step>
<octave>4</octave>
</pitch>
<duration>2</duration>
<type>eighth</type>
<notations>
<slur type="start" number="1"/>
<beam number="1">begin</beam>
</notations>
<lyric>
<syllabic>begin</syllabic>
<text>Ye</text>
</lyric>
</note>
<note>
<pitch>
<step>A</step>
<octave>4</octave>
</pitch>
<duration>2</duration>
<type>eighth</type>
<notations>
<slur type="stop" number="1"/>
<beam number="1">end</beam>
</notations>
<lyric>
<syllabic>end</syllabic>
<text>su</text>
</lyric>
</note>
<note>
<pitch>
<step>B</step>
<octave>4</octave>
</pitch>
<duration>8</duration>
<type>half</type>
<notations>
<fermata type="upright"/>
</notations>
<lyric>
<syllabic>single</syllabic>
<text>ba</text>
</lyric>
</note>
</measure>
<measure number="22">
<note>
<pitch>
<step>C</step>
<octave>5</octave>
</pitch>
<duration>4</duration>
<type>quarter</type>
<lyric>
<syllabic>single</syllabic>
<text>da'ö.</text>
</lyric>
</note>
<note>
<rest/>
<duration>4</duration>
<type>quarter</type>
</note>
<barline location="right">
<bar-style>light-heavy</bar-style>
</barline>
</measure>
</part>
</score-partwise>