<?xml version="1.0" encoding="UTF-8"?>
<score-partwise version="4.0">
  <work>
    <work-title>342. KAONI ZO'AYA KHÖMÖ</work-title>
  </work>
  <part-list>
    <score-part id="P1">
      <part-name>Vocal</part-name>
    </score-part>
  </part-list>
  <part id="P1">
    <measure number="1">
     <barline location="left">
  <repeat direction="forward"/>
</barline>
      <attributes>
        <divisions>2</divisions>
        <key>
          <fifths>-1</fifths>
        </key>
        <time>
          <beats>4</beats>
          <beat-type>4</beat-type>
        </time>
        <clef>
          <sign>G</sign>
          <line>2</line>
        </clef>
      </attributes>
      <direction placement="above">
        <direction-type>
          <metronome>
            <beat-unit>quarter</beat-unit>
            <per-minute>120</per-minute>
          </metronome>
        </direction-type>
        <sound tempo="120"/>
      </direction>
      <note>
        <pitch>
          <step>F</step>
          <octave>4</octave>
        </pitch>
        <duration>3</duration>
        <type>quarter</type>
        <dot/>
        <lyric number="1">
          <syllabic>begin</syllabic>
          <text>Kao</text>
        </lyric>
        <lyric number="2">
          <syllabic>begin</syllabic>
          <text>A</text>
        </lyric>
      </note>
      <note>
        <pitch>
          <step>A</step>
          <octave>4</octave>
        </pitch>
        <duration>1</duration>
        <type>eighth</type>
        <lyric number="1">
          <syllabic>end</syllabic>
          <text>ni</text>
        </lyric>
        <lyric number="2">
          <syllabic>middle</syllabic>
          <text>nga</text>
        </lyric>
      </note>
      <note>
        <pitch>
          <step>C</step>
          <octave>5</octave>
        </pitch>
        <duration>2</duration>
        <type>quarter</type>
        <lyric number="1">
          <syllabic>begin</syllabic>
          <text>Zo'</text>
        </lyric>
        <lyric number="2">
          <syllabic>middle</syllabic>
          <text>lu</text>
        </lyric>
      </note>
      <note>
        <pitch>
          <step>F</step>
          <octave>5</octave>
        </pitch>
        <duration>2</duration>
        <type>quarter</type>
        <lyric number="1">
          <syllabic>middle</syllabic>
          <text>a</text>
        </lyric>
        <lyric number="2">
          <syllabic>end</syllabic>
          <text>lu</text>
        </lyric>
      </note>
    </measure>
    <measure number="2">
      <note>
        <pitch>
          <step>D</step>
          <octave>5</octave>
        </pitch>
        <duration>2</duration>
        <type>quarter</type>
        <lyric number="1">
          <syllabic>end</syllabic>
          <text>ya</text>
        </lyric>
        <lyric number="2">
          <syllabic>begin</syllabic>
          <text>a</text>
        </lyric>
      </note>
      <note>
        <pitch>
          <step>F</step>
          <octave>5</octave>
        </pitch>
        <duration>1</duration>
        <type>eighth</type>
        <beam number="1">begin</beam>
        <notations>
          <slur type="start" number="1" placement="below"/>
        </notations>
        <lyric number="1">
          <syllabic>single</syllabic>
          <text>khö</text>
        </lyric>
        <lyric number="2">
          <syllabic>middle</syllabic>
          <text>nga</text>
        </lyric>
      </note>
      <note>
        <pitch>
          <step>D</step>
          <octave>5</octave>
        </pitch>
        <duration>1</duration>
        <type>eighth</type>
        <beam number="1">end</beam>
        <notations>
          <slur type="stop" number="1"/>
        </notations>
      </note>
      <note>
        <pitch>
          <step>C</step>
          <octave>5</octave>
        </pitch>
        <duration>4</duration>
        <type>half</type>
        <lyric number="1">
          <syllabic>single</syllabic>
          <text>Mö,</text>
        </lyric>
        <lyric number="2">
          <syllabic>end</syllabic>
          <text>ndrö,</text>
        </lyric>
      </note>
    </measure>
    <measure number="3">
      <note>
        <pitch>
          <step>B</step>
          <alter>-1</alter>
          <octave>4</octave>
        </pitch>
        <duration>3</duration>
        <type>quarter</type>
        <dot/>
        <lyric number="1">
          <syllabic>single</syllabic>
          <text>na</text>
        </lyric>
        <lyric number="2">
          <syllabic>single</syllabic>
          <text>khö</text>
        </lyric>
      </note>
      <note>
        <pitch>
          <step>C</step>
          <octave>5</octave>
        </pitch>
        <duration>1</duration>
        <type>eighth</type>
        <lyric number="1">
          <syllabic>single</syllabic>
          <text>so</text>
        </lyric>
        <lyric number="2">
          <syllabic>begin</syllabic>
          <text>Ye</text>
        </lyric>
      </note>
      <note>
        <pitch>
          <step>A</step>
          <octave>4</octave>
        </pitch>
        <duration>2</duration>
        <type>quarter</type>
        <lyric number="1">
          <syllabic>begin</syllabic>
          <text>za</text>
        </lyric>
        <lyric number="2">
          <syllabic>end</syllabic>
          <text>su</text>
        </lyric>
      </note>
      <note>
        <pitch>
          <step>F</step>
          <octave>4</octave>
        </pitch>
        <duration>2</duration>
        <type>quarter</type>
        <lyric number="1">
          <syllabic>end</syllabic>
          <text>bu</text>
        </lyric>
        <lyric number="2">
          <syllabic>single</syllabic>
          <text>sa</text>
        </lyric>
      </note>
    </measure>
    <measure number="4">
      <note>
        <pitch>
          <step>G</step>
          <octave>4</octave>
        </pitch>
        <duration>4</duration>
        <type>half</type>
        <lyric number="1">
          <syllabic>begin</syllabic>
          <text>dö</text>
        </lyric>
        <lyric number="2">
          <syllabic>begin</syllabic>
          <text>no</text>
        </lyric>
      </note>
      <note>
        <pitch>
          <step>F</step>
          <octave>4</octave>
        </pitch>
        <duration>2</duration>
        <type>quarter</type>
        <lyric number="1">
          <syllabic>end</syllabic>
          <text>dö,</text>
        </lyric>
        <lyric number="2">
          <syllabic>end</syllabic>
          <text>lo,</text>
        </lyric>
      </note>
      <note>
        <rest/>
        <duration>2</duration>
        <type>quarter</type>
      </note>
      <barline location="right">
        <bar-style>light-heavy</bar-style>
        <repeat direction="backward"/>
      </barline>
    </measure>
    <measure number="5">
     <barline location="left">
  <repeat direction="forward"/>
</barline>
      <note>
        <pitch>
          <step>C</step>
          <octave>5</octave>
        </pitch>
        <duration>2</duration>
        <type>quarter</type>
        <lyric number="1">
          <syllabic>begin</syllabic>
          <text>Ba'</text>
        </lyric>
        <lyric number="2">
          <syllabic>begin</syllabic>
          <text>khö</text>
        </lyric>
      </note>
      <note>
        <pitch>
          <step>C</step>
          <octave>5</octave>
        </pitch>
        <duration>2</duration>
        <type>quarter</type>
        <lyric number="1">
          <syllabic>middle</syllabic>
          <text>i</text>
        </lyric>
        <lyric number="2">
          <syllabic>middle</syllabic>
          <text>Na</text>
        </lyric>
      </note>
      <note>
        <pitch>
          <step>B</step>
          <alter>-1</alter>
          <octave>4</octave>
        </pitch>
        <duration>2</duration>
        <type>quarter</type>
        <lyric number="1">
          <syllabic>middle</syllabic>
          <text>o</text>
        </lyric>
        <lyric number="2">
          <syllabic>end</syllabic>
          <text>ma</text>
        </lyric>
      </note>
      <note>
        <pitch>
          <step>B</step>
          <alter>-1</alter>
          <octave>4</octave>
        </pitch>
        <duration>2</duration>
        <type>quarter</type>
        <lyric number="1">
          <syllabic>end</syllabic>
          <text>he</text>
        </lyric>
        <lyric number="2">
          <syllabic>single</syllabic>
          <text>sa</text>
        </lyric>
      </note>
    </measure>
    <measure number="6">
      <note>
        <pitch>
          <step>A</step>
          <octave>4</octave>
        </pitch>
        <duration>2</duration>
        <type>quarter</type>
        <lyric number="1">
          <syllabic>begin</syllabic>
          <text>ndra'</text>
        </lyric>
        <lyric number="2">
          <syllabic>begin</syllabic>
          <text>nga</text>
        </lyric>
      </note>
      <note>
        <pitch>
          <step>C</step>
          <octave>5</octave>
        </pitch>
        <duration>1</duration>
        <type>eighth</type>
        <beam number="1">begin</beam>
        <notations>
          <slur type="start" number="1" placement="below"/>
        </notations>
        <lyric number="1">
          <syllabic>middle</syllabic>
          <text>u</text>
        </lyric>
        <lyric number="2">
          <syllabic>middle</syllabic>
          <text>tu</text>
        </lyric>
      </note>
      <note>
        <pitch>
          <step>A</step>
          <octave>4</octave>
        </pitch>
        <duration>1</duration>
        <type>eighth</type>
        <beam number="1">end</beam>
        <notations>
          <slur type="stop" number="1"/>
        </notations>
      </note>
      <note>
        <pitch>
          <step>G</step>
          <octave>4</octave>
        </pitch>
        <duration>4</duration>
        <type>half</type>
        <lyric number="1">
          <syllabic>end</syllabic>
          <text>gö</text>
        </lyric>
        <lyric number="2">
          <syllabic>end</syllabic>
          <text>lö.</text>
        </lyric>
      </note>
      <barline location="right">
        <bar-style>light-heavy</bar-style>
        <repeat direction="backward"/>
      </barline>
    </measure>
    <measure number="7">
      <note>
        <pitch>
          <step>F</step>
          <octave>4</octave>
        </pitch>
        <duration>3</duration>
        <type>quarter</type>
        <dot/>
        <lyric number="1">
          <syllabic>single</syllabic>
          <text>ba</text>
        </lyric>
      </note>
      <note>
        <pitch>
          <step>A</step>
          <octave>4</octave>
        </pitch>
        <duration>1</duration>
        <type>eighth</type>
        <lyric number="1">
          <syllabic>begin</syllabic>
          <text>I</text>
        </lyric>
      </note>
      <note>
        <pitch>
          <step>C</step>
          <octave>5</octave>
        </pitch>
        <duration>2</duration>
        <type>quarter</type>
        <lyric number="1">
          <syllabic>middle</syllabic>
          <text>ra</text>
        </lyric>
      </note>
      <note>
        <pitch>
          <step>F</step>
          <octave>5</octave>
        </pitch>
        <duration>2</duration>
        <type>quarter</type>
        <lyric number="1">
          <syllabic>end</syllabic>
          <text>ra</text>
        </lyric>
      </note>
    </measure>
    <measure number="8">
      <note>
        <pitch>
          <step>D</step>
          <octave>5</octave>
        </pitch>
        <duration>2</duration>
        <type>quarter</type>
        <lyric number="1">
          <syllabic>begin</syllabic>
          <text>dö</text>
        </lyric>
      </note>
      <note>
        <pitch>
          <step>F</step>
          <octave>5</octave>
        </pitch>
        <duration>1</duration>
        <type>eighth</type>
        <beam number="1">begin</beam>
        <notations>
          <slur type="start" number="1" placement="below"/>
        </notations>
        <lyric number="1">
          <syllabic>middle</syllabic>
          <text>dö</text>
        </lyric>
      </note>
      <note>
        <pitch>
          <step>D</step>
          <octave>5</octave>
        </pitch>
        <duration>1</duration>
        <type>eighth</type>
        <beam number="1">end</beam>
        <notations>
          <slur type="stop" number="1"/>
        </notations>
      </note>
      <note>
        <pitch>
          <step>C</step>
          <octave>5</octave>
        </pitch>
        <duration>4</duration>
        <type>half</type>
        <lyric number="1">
          <syllabic>end</syllabic>
          <text>mö</text>
        </lyric>
      </note>
    </measure>
    <measure number="9">
      <note>
       <pitch>
          <step>B</step>
          <alter>-1</alter>
          <octave>4</octave>
        </pitch>
        <duration>3</duration>
        <type>quarter</type>
        <dot/>
        <lyric number="1">
          <syllabic>single</syllabic>
          <text>na</text>
        </lyric>
      </note>
      <note>
        <pitch>
          <step>C</step>
          <octave>5</octave>
        </pitch>
        <duration>1</duration>
        <type>eighth</type>
        <lyric number="1">
          <syllabic>single</syllabic>
          <text>no</text>
        </lyric>
      </note>
      <note>
        <pitch>
          <step>A</step>
          <octave>4</octave>
        </pitch>
        <duration>2</duration>
        <type>quarter</type>
        <lyric number="1">
          <syllabic>begin</syllabic>
          <text>a</text>
        </lyric>
      </note>
      <note>
        <pitch>
          <step>F</step>
          <octave>4</octave>
        </pitch>
        <duration>2</duration>
        <type>quarter</type>
        <lyric number="1">
          <syllabic>end</syllabic>
          <text>bu</text>
        </lyric>
      </note>
    </measure>
    <measure number="10">
      <note>
        <pitch>
          <step>G</step>
          <octave>4</octave>
        </pitch>
        <duration>4</duration>
        <type>half</type>
        <lyric number="1">
          <syllabic>begin</syllabic>
          <text>dö</text>
        </lyric>
      </note>
      <note>
        <pitch>
          <step>F</step>
          <octave>4</octave>
        </pitch>
        <duration>2</duration>
        <type>quarter</type>
        <lyric number="1">
          <syllabic>end</syllabic>
          <text>dö.</text>
        </lyric>
      </note>
      <note>
        <rest/>
        <duration>2</duration>
        <type>quarter</type>
      </note>
      <!-- <barline location="right">
        <bar-style>light-heavy</bar-style>
      </barline> -->
    </measure>
  </part>
</score-partwise>