<?xml version="1.0" encoding="UTF-8"?>

<score-partwise version="4.0">
<work>
<work-title>45. MITABU SAMATI</work-title>
</work>
<part-list>
<score-part id="P1">
<part-name>Vocal</part-name>
</score-part>
</part-list>
<part id="P1">
<measure number="0">
<attributes>
<divisions>2</divisions>
<key>
<fifths>0</fifths>
</key>
<time>
<beats>2</beats>
<beat-type>4</beat-type>
</time>
<clef>
<sign>G</sign>
<line>2</line>
</clef>
</attributes>
<direction placement="above">
        <direction-type>
          <metronome>
            <beat-unit>quarter</beat-unit>
            <per-minute>110</per-minute>
          </metronome>
        </direction-type>
        <sound tempo="110"/>
      </direction>
<note>
<pitch>
<step>C</step>
<octave>4</octave>
</pitch>
<duration>1</duration>
<type>eighth</type>
<lyric>
<syllabic>begin</syllabic>
<text>Mi</text>
</lyric>
</note>
</measure>
<measure number="1">
<note>
<pitch>
<step>C</step>
<octave>4</octave>
</pitch>
<duration>2</duration>
<type>quarter</type>
<lyric>
<syllabic>middle</syllabic>
<text>ta</text>
</lyric>
</note>
<note>
<pitch>
<step>G</step>
<octave>3</octave>
</pitch>
<duration>1</duration>
<type>eighth</type>
<beam number="1">begin</beam>
<lyric>
<syllabic>end</syllabic>
<text>bu</text>
</lyric>
</note>
<note>
<pitch>
<step>C</step>
<octave>4</octave>
</pitch>
<duration>1</duration>
<type>eighth</type>
<beam number="1">end</beam>
<lyric>
<syllabic>begin</syllabic>
<text>sa</text>
</lyric>
</note>
</measure>
<measure number="2">
<note>
<pitch>
<step>D</step>
<octave>4</octave>
</pitch>
<duration>2</duration>
<type>quarter</type>
<lyric>
<syllabic>middle</syllabic>
<text>ma</text>
</lyric>
</note>
<note>
<pitch>
<step>G</step>
<octave>3</octave>
</pitch>
<duration>1</duration>
<type>eighth</type>
<beam number="1">begin</beam>
<lyric>
<syllabic>middle</syllabic>
<text>ti</text>
</lyric>
</note>
<note>
<pitch>
<step>G</step>
<octave>3</octave>
</pitch>
<duration>1</duration>
<type>eighth</type>
<beam number="1">end</beam>
<notations>
<articulations>
<breath-mark/>
</articulations>
</notations>
<lyric>
<syllabic>end</syllabic>
<text>ba</text>
</lyric>
</note>
</measure>
<measure number="3">
<note>
<pitch>
<step>E</step>
<octave>4</octave>
</pitch>
<duration>1</duration>
<type>eighth</type>
<beam number="1">begin</beam>
<lyric>
<syllabic>begin</syllabic>
<text>ta</text>
</lyric>
</note>
<note>
<pitch>
<step>D</step>
<octave>4</octave>
</pitch>
<duration>1</duration>
<type>eighth</type>
<beam number="1">end</beam>
<lyric>
<syllabic>middle</syllabic>
<text>fao</text>
</lyric>
</note>
<note>
<pitch>
<step>E</step>
<octave>4</octave>
</pitch>
<duration>1</duration>
<type>eighth</type>
<beam number="1">begin</beam>
<lyric>
<syllabic>middle</syllabic>
<text>ae</text>
</lyric>
</note>
<note>
<pitch>
<step>F</step>
<octave>4</octave>
</pitch>
<duration>1</duration>
<type>eighth</type>
<beam number="1">end</beam>
<lyric>
<syllabic>middle</syllabic>
<text>wa</text>
</lyric>
</note>
</measure>
<measure number="4">
<note>
<pitch>
<step>E</step>
<octave>4</octave>
</pitch>
<duration>2</duration>
<type>quarter</type>
<lyric>
<syllabic>middle</syllabic>
<text>nu</text>
</lyric>
</note>
<note>
<pitch>
<step>D</step>
<octave>4</octave>
</pitch>
<duration>1</duration>
<type>eighth</type>
<notations>
<articulations>
<breath-mark/>
</articulations>
</notations>
<lyric>
<syllabic>end</syllabic>
<text>nö</text>
</lyric>
</note>
<note>
<pitch>
<step>C</step>
<octave>4</octave>
</pitch>
<duration>1</duration>
<type>eighth</type>
<lyric>
<syllabic>single</syllabic>
<text>mi</text>
</lyric>
</note>
</measure>
<measure number="5">
<note>
<pitch>
<step>C</step>
<octave>4</octave>
</pitch>
<duration>2</duration>
<type>quarter</type>
<lyric>
<syllabic>begin</syllabic>
<text>ta</text>
</lyric>
</note>
<note>
<pitch>
<step>B</step>
<octave>3</octave>
</pitch>
<duration>1</duration>
<type>eighth</type>
<beam number="1">begin</beam>
<lyric>
<syllabic>end</syllabic>
<text>bu</text>
</lyric>
</note>
<note>
<pitch>
<step>A</step>
<octave>3</octave>
</pitch>
<duration>1</duration>
<type>eighth</type>
<beam number="1">end</beam>
<lyric>
<syllabic>single</syllabic>
<text>ba</text>
</lyric>
</note>
</measure>
<measure number="6">
<note>
<pitch>
<step>B</step>
<octave>3</octave>
</pitch>
<duration>1</duration>
<type>eighth</type>
<beam number="1">begin</beam>
<notations>
<slur type="start" number="1"/>
</notations>
<lyric>
<syllabic>begin</syllabic>
<text>Mbe</text>
</lyric>
</note>
<note>
<pitch>
<step>C</step>
<octave>4</octave>
</pitch>
<duration>1</duration>
<type>eighth</type>
<beam number="1">end</beam>
<notations>
<slur type="stop" number="1"/>
</notations>
</note>
<note>
<pitch>
<step>D</step>
<octave>4</octave>
</pitch>
<duration>1</duration>
<type>eighth</type>
<beam number="1">begin</beam>
<lyric>
<syllabic>middle</syllabic>
<text>ti</text>
</lyric>
</note>
<note>
<pitch>
<step>E</step>
<octave>4</octave>
</pitch>
<duration>1</duration>
<type>eighth</type>
<beam number="1">end</beam>
<lyric>
<syllabic>end</syllabic>
<text>le</text>
</lyric>
</note>
</measure>
<measure number="7">
<note>
<pitch>
<step>B</step>
<octave>3</octave>
</pitch>
<duration>1</duration>
<type>eighth</type>
<beam number="1">begin</beam>
<lyric>
<syllabic>begin</syllabic>
<text>khe</text>
</lyric>
</note>
<note>
<pitch>
<step>A</step>
<octave>3</octave>
</pitch>
<duration>1</duration>
<tie type="start"/>
<type>eighth</type>
<beam number="1">end</beam>
<notations>
<tied type="start"/>
<slur type="start" number="1"/>
</notations>
<lyric>
<syllabic>end</syllabic>
<text>ma</text>
</lyric>
</note>
<note>
<pitch>
<step>A</step>
<octave>3</octave>
</pitch>
<duration>1</duration>
<tie type="stop"/>
<type>eighth</type>
<beam number="1">begin</beam>
<notations>
<tied type="stop"/>
</notations>
</note>
<note>
<pitch>
<step>G</step>
<octave>3</octave>
</pitch>
<duration>1</duration>
<type>eighth</type>
<beam number="1">end</beam>
<notations>
<slur type="stop" number="1"/>
</notations>
</note>
</measure>
<measure number="8">
<note>
<pitch>
<step>G</step>
<octave>3</octave>
</pitch>
<duration>2</duration>
<type>quarter</type>
<lyric>
<syllabic>single</syllabic>
<text>ö</text>
</lyric>
</note>
<note>
<rest/>
<duration>2</duration>
<type>quarter</type>
</note>
</measure>
<measure number="9">
<note>
<pitch>
<step>G</step>
<octave>4</octave>
</pitch>
<duration>2</duration>
<type>quarter</type>
<lyric>
<syllabic>begin</syllabic>
<text>O</text>
</lyric>
</note>
<note>
<pitch>
<step>F</step>
<octave>4</octave>
</pitch>
<duration>1</duration>
<type>eighth</type>
<beam number="1">begin</beam>
<lyric>
<syllabic>end</syllabic>
<text>no</text>
</lyric>
</note>
<note>
<pitch>
<step>E</step>
<octave>4</octave>
</pitch>
<duration>1</duration>
<type>eighth</type>
<beam number="1">end</beam>
<lyric>
<syllabic>begin</syllabic>
<text>mi</text>
</lyric>
</note>
</measure>
<measure number="10">
<note>
<pitch>
<step>F</step>
<octave>4</octave>
</pitch>
<duration>2</duration>
<type>quarter</type>
<lyric>
<syllabic>middle</syllabic>
<text>fai</text>
</lyric>
</note>
<note>
<pitch>
<step>E</step>
<octave>4</octave>
</pitch>
<duration>2</duration>
<type>quarter</type>
<lyric>
<syllabic>end</syllabic>
<text>gi</text>
</lyric>
</note>
</measure>
<measure number="11">
<note>
<pitch>
<step>D</step>
<octave>4</octave>
</pitch>
<duration>1</duration>
<type>eighth</type>
<beam number="1">begin</beam>
<lyric>
<syllabic>begin</syllabic>
<text>si</text>
</lyric>
</note>
<note>
<pitch>
<step>E</step>
<octave>4</octave>
</pitch>
<duration>1</duration>
<type>eighth</type>
<beam number="1">end</beam>
<lyric>
<syllabic>middle</syllabic>
<text>no</text>
</lyric>
</note>
<note>
<pitch>
<step>C</step>
<octave>4</octave>
</pitch>
<duration>1</duration>
<type>eighth</type>
<beam number="1">begin</beam>
<lyric>
<syllabic>middle</syllabic>
<text>tu</text>
</lyric>
</note>
<note>
<pitch>
<step>D</step>
<octave>4</octave>
</pitch>
<duration>1</duration>
<type>eighth</type>
<beam number="1">end</beam>
<lyric>
<syllabic>end</syllabic>
<text>mbu</text>
</lyric>
</note>
</measure>
<measure number="12">
<note>
<pitch>
<step>B</step>
<octave>3</octave>
</pitch>
<duration>1</duration>
<type>eighth</type>
<beam number="1">begin</beam>
<notations>
<slur type="start" number="1"/>
</notations>
<lyric>
<syllabic>begin</syllabic>
<text>a</text>
</lyric>
</note>
<note>
<pitch>
<step>A</step>
<octave>3</octave>
</pitch>
<duration>1</duration>
<type>eighth</type>
<beam number="1">end</beam>
<notations>
<slur type="stop" number="1"/>
</notations>
</note>
<note>
<pitch>
<step>G</step>
<octave>3</octave>
</pitch>
<duration>1</duration>
<type>eighth</type>
<notations>
<articulations>
<breath-mark/>
</articulations>
</notations>
<lyric>
<syllabic>end</syllabic>
<text>ndrö</text>
</lyric>
</note>
<note>
<pitch>
<step>C</step>
<octave>4</octave>
</pitch>
<duration>1</duration>
<type>eighth</type>
<lyric>
<syllabic>single</syllabic>
<text>ta</text>
</lyric>
</note>
</measure>
<measure number="13">
<note>
<pitch>
<step>C</step>
<octave>4</octave>
</pitch>
<duration>1</duration>
<type>eighth</type>
<beam number="1">begin</beam>
<lyric>
<syllabic>begin</syllabic>
<text>a</text>
</lyric>
</note>
<note>
<pitch>
<step>B</step>
<octave>3</octave>
</pitch>
<duration>1</duration>
<type>eighth</type>
<beam number="1">end</beam>
<lyric>
<syllabic>middle</syllabic>
<text>nga</text>
</lyric>
</note>
<note>
<pitch>
<step>C</step>
<octave>4</octave>
</pitch>
<duration>1</duration>
<type>eighth</type>
<beam number="1">begin</beam>
<lyric>
<syllabic>middle</syllabic>
<text>rö</text>
</lyric>
</note>
<note>
<pitch>
<step>D</step>
<octave>4</octave>
</pitch>
<duration>1</duration>
<type>eighth</type>
<beam number="1">end</beam>
<lyric>
<syllabic>middle</syllabic>
<text>fi</text>
</lyric>
</note>
</measure>
<measure number="14">
<note>
<pitch>
<step>C</step>
<octave>4</octave>
</pitch>
<duration>2</duration>
<type>quarter</type>
<lyric>
<syllabic>end</syllabic>
<text>li</text>
</lyric>
</note>
<note>
<pitch>
<step>G</step>
<octave>3</octave>
</pitch>
<duration>1</duration>
<type>eighth</type>
<notations>
<articulations>
<breath-mark/>
</articulations>
</notations>
<lyric>
<syllabic>single</syllabic>
<text>da</text>
</lyric>
</note>
<note>
<pitch>
<step>E</step>
<octave>4</octave>
</pitch>
<duration>1</duration>
<type>eighth</type>
<lyric>
<syllabic>single</syllabic>
<text>ta</text>
</lyric>
</note>
</measure>
<measure number="15">
<note>
<pitch>
<step>E</step>
<octave>4</octave>
</pitch>
<duration>1</duration>
<type>eighth</type>
<beam number="1">begin</beam>
<lyric>
<syllabic>begin</syllabic>
<text>a</text>
</lyric>
</note>
<note>
<pitch>
<step>D</step>
<octave>4</octave>
</pitch>
<duration>1</duration>
<type>eighth</type>
<beam number="1">end</beam>
<lyric>
<syllabic>middle</syllabic>
<text>nga</text>
</lyric>
</note>
<note>
<pitch>
<step>E</step>
<octave>4</octave>
</pitch>
<duration>1</duration>
<type>eighth</type>
<beam number="1">begin</beam>
<lyric>
<syllabic>middle</syllabic>
<text>rö</text>
</lyric>
</note>
<note>
<pitch>
<step>F</step>
<octave>4</octave>
</pitch>
<duration>1</duration>
<type>eighth</type>
<beam number="1">end</beam>
<lyric>
<syllabic>middle</syllabic>
<text>fi</text>
</lyric>
</note>
</measure>
<measure number="16">
<note>
<pitch>
<step>E</step>
<octave>4</octave>
</pitch>
<duration>2</duration>
<type>quarter</type>
<lyric>
<syllabic>end</syllabic>
<text>li</text>
</lyric>
</note>
<note>
<pitch>
<step>D</step>
<octave>4</octave>
</pitch>
<duration>1</duration>
<type>eighth</type>
<notations>
<articulations>
<breath-mark/>
</articulations>
</notations>
<lyric>
<syllabic>single</syllabic>
<text>da,</text>
</lyric>
</note>
<note>
<pitch>
<step>E</step>
<octave>4</octave>
</pitch>
<duration>1</duration>
<type>eighth</type>
<lyric>
<syllabic>single</syllabic>
<text>ta</text>
</lyric>
</note>
</measure>
<measure number="17">
<note>
<pitch>
<step>F</step>
<octave>4</octave>
</pitch>
<duration>1</duration>
<type>eighth</type>
<beam number="1">begin</beam>
<lyric>
<syllabic>begin</syllabic>
<text>a</text>
</lyric>
</note>
<note>
<pitch>
<step>E</step>
<octave>4</octave>
</pitch>
<duration>1</duration>
<type>eighth</type>
<beam number="1">end</beam>
<lyric>
<syllabic>middle</syllabic>
<text>nga</text>
</lyric>
</note>
<note>
<pitch>
<step>D</step>
<octave>4</octave>
</pitch>
<duration>1</duration>
<type>eighth</type>
<beam number="1">begin</beam>
<lyric>
<syllabic>middle</syllabic>
<text>rö</text>
</lyric>
</note>
<note>
<pitch>
<step>C</step>
<octave>4</octave>
</pitch>
<duration>1</duration>
<type>eighth</type>
<beam number="1">end</beam>
<lyric>
<syllabic>middle</syllabic>
<text>fi</text>
</lyric>
</note>
</measure>
<measure number="18">
<note>
<pitch>
<step>B</step>
<octave>3</octave>
</pitch>
<duration>2</duration>
<type>quarter</type>
<lyric>
<syllabic>end</syllabic>
<text>li</text>
</lyric>
</note>
<note>
<pitch>
<step>C</step>
<octave>4</octave>
</pitch>
<duration>1</duration>
<type>eighth</type>
<beam number="1">begin</beam>
<lyric>
<syllabic>single</syllabic>
<text>da</text>
</lyric>
</note>
<note>
<pitch>
<step>D</step>
<octave>4</octave>
</pitch>
<duration>1</duration>
<type>eighth</type>
<beam number="1">end</beam>
<lyric>
<syllabic>begin</syllabic>
<text>za</text>
</lyric>
</note>
</measure>
<measure number="19">
<note>
<pitch>
<step>E</step>
<octave>4</octave>
</pitch>
<duration>2</duration>
<type>quarter</type>
<notations>
<slur type="start" number="1"/>
</notations>
<lyric>
<syllabic>middle</syllabic>
<text>la</text>
</lyric>
</note>
<note>
<pitch>
<step>D</step>
<octave>4</octave>
</pitch>
<duration>2</duration>
<type>quarter</type>
<notations>
<slur type="stop" number="1"/>
</notations>
</note>
</measure>
<measure number="20">
<note>
<pitch>
<step>C</step>
<octave>4</octave>
</pitch>
<duration>2</duration>
<type>quarter</type>
<lyric>
<syllabic>end</syllabic>
<text>wa.</text>
</lyric>
</note>
<note>
<rest/>
<duration>2</duration>
<type>quarter</type>
</note>
<barline location="right">
<bar-style>light-heavy</bar-style>
</barline>
</measure>
</part>
</score-partwise>