<?xml version="1.0" encoding="UTF-8"?>
<score-partwise version="4.0">
  <work><work-title>4. NA HÖNÖ MBAWAGU ENA'Ö</work-title></work>
  <part-list><score-part id="P1"><part-name>Piano</part-name></score-part></part-list>
  <part id="P1">
    <measure number="1">
      <attributes><divisions>4</divisions><key><fifths>-1</fifths></key><time><beats>4</beats><beat-type>4</beat-type></time><clef><sign>G</sign><line>2</line></clef></attributes>
      <barline location="left"><bar-style>heavy-light</bar-style><repeat direction="forward"/></barline>
      <note><rest/><duration>4</duration><type>quarter</type></note>
      <note><pitch><step>C</step><octave>5</octave></pitch><duration>4</duration><type>quarter</type></note>
      <note><pitch><step>A</step><octave>4</octave></pitch><duration>4</duration><type>quarter</type></note>
      <note><pitch><step>C</step><octave>5</octave></pitch><duration>4</duration><type>quarter</type></note>
    </measure>
    <measure number="2">
      <note><pitch><step>D</step><octave>5</octave></pitch><duration>4</duration><type>quarter</type></note>
      <note><pitch><step>C</step><octave>5</octave></pitch><duration>4</duration><type>quarter</type></note>
      <note><pitch><step>B</step><alter>-1</alter><octave>4</octave></pitch><duration>4</duration><type>quarter</type></note>
      <note><pitch><step>A</step><octave>4</octave></pitch><duration>4</duration><type>quarter</type></note>
    </measure>
    <measure number="3">
      <note><pitch><step>G</step><octave>4</octave></pitch><duration>8</duration><type>half</type></note>
      <note><pitch><step>F</step><octave>4</octave></pitch><duration>4</duration><type>quarter</type></note>
      <note><pitch><step>A</step><octave>4</octave></pitch><duration>4</duration><type>quarter</type></note>
    </measure>
    <measure number="4">
      <note><pitch><step>G</step><octave>4</octave></pitch><duration>4</duration><type>quarter</type></note>
      <note><pitch><step>F</step><octave>4</octave></pitch><duration>4</duration><type>quarter</type></note>
      <note><pitch><step>G</step><octave>4</octave></pitch><duration>4</duration><type>quarter</type></note>
      <note><pitch><step>A</step><octave>4</octave></pitch><duration>4</duration><type>quarter</type></note>
    </measure>
    <measure number="5">
      <note><pitch><step>B</step><alter>-1</alter><octave>4</octave></pitch><duration>4</duration><type>quarter</type></note>
      <note><pitch><step>A</step><octave>4</octave></pitch><duration>4</duration><type>quarter</type></note>
      <note><pitch><step>G</step><octave>4</octave></pitch><duration>8</duration><type>half</type></note>
      <barline location="right"><bar-style>light-heavy</bar-style><repeat direction="backward"/></barline>
    </measure>
    <measure number="6">
      <note><rest/><duration>4</duration><type>quarter</type></note>
      <note><pitch><step>G</step><octave>4</octave></pitch><duration>4</duration><type>quarter</type></note>
      <note><pitch><step>G</step><octave>4</octave></pitch><duration>4</duration><type>quarter</type></note>
      <note><pitch><step>G</step><octave>4</octave></pitch><duration>4</duration><type>quarter</type></note>
    </measure>
    <measure number="7">
      <note><pitch><step>A</step><octave>4</octave></pitch><duration>4</duration><type>quarter</type></note>
      <note><pitch><step>C</step><octave>5</octave></pitch><duration>4</duration><type>quarter</type></note>
      <note><pitch><step>C</step><octave>5</octave></pitch><duration>4</duration><type>quarter</type></note>
      <note><pitch><step>B</step><octave>4</octave></pitch><duration>4</duration><type>quarter</type><accidental>natural</accidental></note>
    </measure>
    <measure number="8">
      <note><pitch><step>C</step><octave>5</octave></pitch><duration>8</duration><type>half</type></note>
      <note><rest/><duration>4</duration><type>quarter</type></note>
      <note><pitch><step>C</step><octave>5</octave></pitch><duration>4</duration><type>quarter</type></note>
    </measure>
    <measure number="9">
      <note><pitch><step>A</step><octave>4</octave></pitch><duration>4</duration><type>quarter</type></note>
      <note><pitch><step>F</step><octave>4</octave></pitch><duration>4</duration><type>quarter</type></note>
      <note><pitch><step>D</step><octave>5</octave></pitch><duration>4</duration><type>quarter</type></note>
      <note><pitch><step>B</step><alter>-1</alter><octave>4</octave></pitch><duration>4</duration><type>quarter</type></note>
    </measure>
    <measure number="10">
      <note><pitch><step>A</step><octave>4</octave></pitch><duration>4</duration><type>quarter</type></note>
      <note><pitch><step>G</step><octave>4</octave></pitch><duration>4</duration><type>quarter</type></note>
      <note><pitch><step>F</step><octave>4</octave></pitch><duration>8</duration><type>half</type></note>
      <barline location="right"><bar-style>light-heavy</bar-style></barline>
    </measure>
  </part>
</score-partwise>