<?xml version="1.0" encoding="UTF-8"?>
<score-partwise version="4.0">
  <work>
    <work-title>61. FAOSO TÖDÖGU ANDRE</work-title>
  </work>
  <part-list>
    <score-part id="P1">
      <part-name>Vocal</part-name>
    </score-part>
  </part-list>
  <part id="P1">
    <measure number="1">
      <attributes>
        <divisions>2</divisions>
        <key>
          <fifths>0</fifths>
        </key>
        <time>
          <beats>4</beats>
          <beat-type>4</beat-type>
        </time>
        <clef>
          <sign>G</sign>
          <line>2</line>
        </clef>
      </attributes>
      <note>
        <pitch>
          <step>E</step>
          <octave>4</octave>
        </pitch>
        <duration>2</duration>
        <type>quarter</type>
        <lyric>
          <syllabic>begin</syllabic>
          <text>Fao</text>
        </lyric>
      </note>
      <note>
        <pitch>
          <step>C</step>
          <octave>4</octave>
        </pitch>
        <duration>2</duration>
        <type>quarter</type>
        <lyric>
          <syllabic>end</syllabic>
          <text>so</text>
        </lyric>
      </note>
      <note>
        <pitch>
          <step>D</step>
          <octave>4</octave>
        </pitch>
        <duration>2</duration>
        <type>quarter</type>
        <lyric>
          <syllabic>begin</syllabic>
          <text>tö</text>
        </lyric>
      </note>
      <note>
        <pitch>
          <step>G</step>
          <octave>4</octave>
        </pitch>
        <duration>1</duration>
        <type>eighth</type>
        <beam number="1">begin</beam>
        <notations>
          <slur type="start" number="1"/>
        </notations>
        <lyric>
          <syllabic>end</syllabic>
          <text>dö</text>
        </lyric>
      </note>
      <note>
        <pitch>
          <step>F</step>
          <octave>4</octave>
        </pitch>
        <duration>1</duration>
        <type>eighth</type>
        <beam number="1">end</beam>
        <notations>
          <slur type="stop" number="1"/>
        </notations>
      </note>
    </measure>
    <measure number="2">
      <note>
        <pitch>
          <step>E</step>
          <octave>4</octave>
        </pitch>
        <duration>2</duration>
        <type>quarter</type>
        <lyric>
          <syllabic>single</syllabic>
          <text>gu</text>
        </lyric>
      </note>
      <note>
        <pitch>
          <step>D</step>
          <octave>4</octave>
        </pitch>
        <duration>1</duration>
        <type>eighth</type>
        <beam number="1">begin</beam>
        <notations>
          <slur type="start" number="1"/>
        </notations>
        <lyric>
          <syllabic>begin</syllabic>
          <text>a</text>
        </lyric>
      </note>
      <note>
        <pitch>
          <step>C</step>
          <octave>4</octave>
        </pitch>
        <duration>1</duration>
        <type>eighth</type>
        <beam number="1">end</beam>
        <notations>
          <slur type="stop" number="1"/>
        </notations>
      </note>
      <note>
        <pitch>
          <step>D</step>
          <octave>4</octave>
        </pitch>
        <duration>4</duration>
        <type>half</type>
        <notations>
          <articulations>
            <breath-mark/>
          </articulations>
        </notations>
        <lyric>
          <syllabic>end</syllabic>
          <text>ndre,</text>
        </lyric>
      </note>
    </measure>
    <measure number="3">
      <note>
        <pitch>
          <step>C</step>
          <octave>4</octave>
        </pitch>
        <duration>3</duration>
        <type>quarter</type>
        <dot/>
        <lyric>
          <syllabic>begin</syllabic>
          <text>ba</text>
        </lyric>
      </note>
      <note>
        <pitch>
          <step>B</step>
          <octave>3</octave>
        </pitch>
        <duration>1</duration>
        <type>eighth</type>
        <lyric>
          <syllabic>middle</syllabic>
          <text>fa</text>
        </lyric>
      </note>
      <note>
        <pitch>
          <step>A</step>
          <octave>3</octave>
        </pitch>
        <duration>1</duration>
        <type>eighth</type>
        <beam number="1">begin</beam>
        <notations>
          <slur type="start" number="1"/>
        </notations>
        <lyric>
          <syllabic>middle</syllabic>
          <text>tou</text>
        </lyric>
      </note>
      <note>
        <pitch>
          <step>B</step>
          <octave>3</octave>
        </pitch>
        <duration>1</duration>
        <type>eighth</type>
        <beam number="1">end</beam>
        <notations>
          <slur type="stop" number="1"/>
        </notations>
      </note>
      <note>
        <pitch>
          <step>C</step>
          <octave>4</octave>
        </pitch>
        <duration>2</duration>
        <type>quarter</type>
        <lyric>
          <syllabic>end</syllabic>
          <text>tou</text>
        </lyric>
      </note>
    </measure>
    <measure number="4">
      <note>
        <pitch>
          <step>D</step>
          <octave>4</octave>
        </pitch>
        <duration>2</duration>
        <type>quarter</type>
        <lyric>
          <syllabic>begin</syllabic>
          <text>tö</text>
        </lyric>
      </note>
      <note>
        <pitch>
          <step>E</step>
          <octave>4</octave>
        </pitch>
        <duration>2</duration>
        <type>quarter</type>
        <lyric>
          <syllabic>end</syllabic>
          <text>dö</text>
        </lyric>
      </note>
      <note>
        <pitch>
          <step>D</step>
          <octave>4</octave>
        </pitch>
        <duration>4</duration>
        <type>half</type>
        <lyric>
          <syllabic>begin</syllabic>
          <text>Ye</text>
        </lyric>
      </note>
    </measure>
    <measure number="5">
      <note>
        <pitch>
          <step>C</step>
          <octave>4</octave>
        </pitch>
        <duration>8</duration>
        <type>whole</type>
        <lyric>
          <syllabic>end</syllabic>
          <text>su</text>
        </lyric>
      </note>
    </measure>
    <measure number="6">
      <note>
        <pitch>
          <step>E</step>
          <octave>4</octave>
        </pitch>
        <duration>2</duration>
        <type>quarter</type>
        <lyric>
          <syllabic>begin</syllabic>
          <text>Fa'</text>
        </lyric>
      </note>
      <note>
        <pitch>
          <step>C</step>
          <octave>4</octave>
        </pitch>
        <duration>2</duration>
        <type>quarter</type>
        <lyric>
          <syllabic>middle</syllabic>
          <text>a</text>
        </lyric>
      </note>
      <note>
        <pitch>
          <step>D</step>
          <octave>4</octave>
        </pitch>
        <duration>2</duration>
        <type>quarter</type>
        <lyric>
          <syllabic>middle</syllabic>
          <text>ma</text>
        </lyric>
      </note>
      <note>
        <pitch>
          <step>G</step>
          <octave>4</octave>
        </pitch>
        <duration>1</duration>
        <type>eighth</type>
        <beam number="1">begin</beam>
        <notations>
          <slur type="start" number="1"/>
        </notations>
        <lyric>
          <syllabic>end</syllabic>
          <text>te</text>
        </lyric>
      </note>
      <note>
        <pitch>
          <step>F</step>
          <octave>4</octave>
        </pitch>
        <duration>1</duration>
        <type>eighth</type>
        <beam number="1">end</beam>
        <notations>
          <slur type="stop" number="1"/>
        </notations>
      </note>
    </measure>
    <measure number="7">
      <note>
        <pitch>
          <step>E</step>
          <octave>4</octave>
        </pitch>
        <duration>2</duration>
        <type>quarter</type>
        <lyric>
          <syllabic>single</syllabic>
          <text>i</text>
        </lyric>
      </note>
      <note>
        <pitch>
          <step>D</step>
          <octave>4</octave>
        </pitch>
        <duration>1</duration>
        <type>eighth</type>
        <beam number="1">begin</beam>
        <notations>
          <slur type="start" number="1"/>
        </notations>
        <lyric>
          <syllabic>begin</syllabic>
          <text>te</text>
        </lyric>
      </note>
      <note>
        <pitch>
          <step>C</step>
          <octave>4</octave>
        </pitch>
        <duration>1</duration>
        <type>eighth</type>
        <beam number="1">end</beam>
        <notations>
          <slur type="stop" number="1"/>
        </notations>
      </note>
      <note>
        <pitch>
          <step>D</step>
          <octave>4</octave>
        </pitch>
        <duration>4</duration>
        <type>half</type>
        <notations>
          <articulations>
            <breath-mark/>
          </articulations>
        </notations>
        <lyric>
          <syllabic>end</syllabic>
          <text>he</text>
        </lyric>
      </note>
    </measure>
    <measure number="8">
      <note>
        <pitch>
          <step>C</step>
          <octave>4</octave>
        </pitch>
        <duration>3</duration>
        <type>quarter</type>
        <dot/>
        <lyric>
          <syllabic>begin</syllabic>
          <text>wa</text>
        </lyric>
      </note>
      <note>
        <pitch>
          <step>B</step>
          <octave>3</octave>
        </pitch>
        <duration>1</duration>
        <type>eighth</type>
        <lyric>
          <syllabic>middle</syllabic>
          <text>ngo</text>
        </lyric>
      </note>
      <note>
        <pitch>
          <step>A</step>
          <octave>3</octave>
        </pitch>
        <duration>1</duration>
        <type>eighth</type>
        <beam number="1">begin</beam>
        <notations>
          <slur type="start" number="1"/>
        </notations>
        <lyric>
          <syllabic>middle</syllabic>
          <text>ri</text>
        </lyric>
      </note>
      <note>
        <pitch>
          <step>B</step>
          <octave>3</octave>
        </pitch>
        <duration>1</duration>
        <type>eighth</type>
        <beam number="1">end</beam>
        <notations>
          <slur type="stop" number="1"/>
        </notations>
      </note>
      <note>
        <pitch>
          <step>C</step>
          <octave>4</octave>
        </pitch>
        <duration>2</duration>
        <type>quarter</type>
        <lyric>
          <syllabic>end</syllabic>
          <text>fi</text>
        </lyric>
      </note>
    </measure>
    <measure number="9">
      <note>
        <pitch>
          <step>D</step>
          <octave>4</octave>
        </pitch>
        <duration>2</duration>
        <type>quarter</type>
        <lyric>
          <syllabic>begin</syllabic>
          <text>ni</text>
        </lyric>
      </note>
      <note>
        <pitch>
          <step>E</step>
          <octave>4</octave>
        </pitch>
        <duration>2</duration>
        <type>quarter</type>
        <lyric>
          <syllabic>end</syllabic>
          <text>ha</text>
        </lyric>
      </note>
      <note>
        <pitch>
          <step>D</step>
          <octave>4</octave>
        </pitch>
        <duration>4</duration>
        <type>half</type>
        <lyric>
          <syllabic>begin</syllabic>
          <text>fe</text>
        </lyric>
      </note>
    </measure>
    <measure number="10">
      <note>
        <pitch>
          <step>C</step>
          <octave>4</octave>
        </pitch>
        <duration>8</duration>
        <type>whole</type>
        <lyric>
          <syllabic>end</syllabic>
          <text>fu</text>
        </lyric>
      </note>
    </measure>
    <measure number="11">
      <note>
        <pitch>
          <step>G</step>
          <octave>3</octave>
        </pitch>
        <duration>3</duration>
        <type>quarter</type>
        <dot/>
        <lyric>
          <syllabic>single</syllabic>
          <text>Ae</text>
        </lyric>
      </note>
      <note>
        <pitch>
          <step>G</step>
          <octave>3</octave>
        </pitch>
        <duration>1</duration>
        <type>eighth</type>
        <lyric>
          <syllabic>begin</syllabic>
          <text>ha</text>
        </lyric>
      </note>
      <note>
        <pitch>
          <step>A</step>
          <octave>3</octave>
        </pitch>
        <duration>2</duration>
        <type>quarter</type>
        <lyric>
          <syllabic>middle</syllabic>
          <text>tö'ö</text>
        </lyric>
      </note>
      <note>
        <pitch>
          <step>B</step>
          <octave>3</octave>
        </pitch>
        <duration>2</duration>
        <type>quarter</type>
        <lyric>
          <syllabic>middle</syllabic>
          <text>gö</text>
        </lyric>
      </note>
    </measure>
    <measure number="12">
      <note>
        <pitch>
          <step>C</step>
          <octave>4</octave>
        </pitch>
        <duration>2</duration>
        <type>quarter</type>
        <lyric>
          <syllabic>middle</syllabic>
          <text>khö</text>
        </lyric>
      </note>
      <note>
        <pitch>
          <step>D</step>
          <octave>4</octave>
        </pitch>
        <duration>1</duration>
        <type>eighth</type>
        <beam number="1">begin</beam>
        <notations>
          <slur type="start" number="1"/>
        </notations>
        <lyric>
          <syllabic>middle</syllabic>
          <text>Ni</text>
        </lyric>
      </note>
      <note>
        <pitch>
          <step>C</step>
          <octave>4</octave>
        </pitch>
        <duration>1</duration>
        <type>eighth</type>
        <beam number="1">end</beam>
        <notations>
          <slur type="stop" number="1"/>
        </notations>
      </note>
      <note>
        <pitch>
          <step>B</step>
          <octave>3</octave>
        </pitch>
        <duration>2</duration>
        <type>quarter</type>
        <lyric>
          <syllabic>end</syllabic>
          <text>a,</text>
        </lyric>
      </note>
      <note>
        <pitch>
          <step>G</step>
          <octave>4</octave>
        </pitch>
        <duration>2</duration>
        <type>quarter</type>
        <notations>
          <articulations>
            <breath-mark/>
          </articulations>
        </notations>
        <lyric>
          <syllabic>begin</syllabic>
          <text>si</text>
        </lyric>
      </note>
    </measure>
    <measure number="13">
      <note>
        <pitch>
          <step>C</step>
          <octave>4</octave>
        </pitch>
        <duration>3</duration>
        <type>quarter</type>
        <dot/>
        <lyric>
          <syllabic>end</syllabic>
          <text>lö</text>
        </lyric>
      </note>
      <note>
        <pitch>
          <step>B</step>
          <octave>3</octave>
        </pitch>
        <duration>1</duration>
        <type>eighth</type>
        <lyric>
          <syllabic>begin</syllabic>
          <text>fa</text>
        </lyric>
      </note>
      <note>
        <pitch>
          <step>D</step>
          <octave>4</octave>
        </pitch>
        <duration>2</duration>
        <type>quarter</type>
        <lyric>
          <syllabic>middle</syllabic>
          <text>röi</text>
        </lyric>
      </note>
      <note>
        <pitch>
          <step>E</step>
          <octave>4</octave>
        </pitch>
        <duration>2</duration>
        <type>quarter</type>
        <lyric>
          <syllabic>middle</syllabic>
          <text>röi</text>
        </lyric>
      </note>
    </measure>
    <measure number="14">
      <note>
        <pitch>
          <step>F</step>
          <octave>4</octave>
        </pitch>
        <duration>2</duration>
        <type>quarter</type>
        <lyric>
          <syllabic>end</syllabic>
          <text>sa</text>
        </lyric>
      </note>
      <note>
        <pitch>
          <step>E</step>
          <octave>4</octave>
        </pitch>
        <duration>2</duration>
        <type>quarter</type>
        <lyric>
          <syllabic>begin</syllabic>
          <text>I</text>
        </lyric>
      </note>
      <note>
        <pitch>
          <step>D</step>
          <octave>4</octave>
        </pitch>
        <duration>4</duration>
        <type>half</type>
      </note>
    </measure>
    <measure number="15">
      <note>
        <pitch>
          <step>C</step>
          <octave>4</octave>
        </pitch>
        <duration>8</duration>
        <type>whole</type>
        <lyric>
          <syllabic>end</syllabic>
          <text>a.</text>
        </lyric>
      </note>
      <barline location="right">
        <bar-style>light-heavy</bar-style>
      </barline>
    </measure>
  </part>
</score-partwise>