<?xml version="1.0" encoding="UTF-8"?>

<score-partwise version="4.0">
<work>
<work-title>63. HA SAMBALÖ ZOMASIDO</work-title>
</work>
<part-list>
<score-part id="P1">
<part-name>Vocal</part-name>
</score-part>
</part-list>
<part id="P1">
<measure number="1">
<attributes>
<divisions>1</divisions>
<key>
<fifths>0</fifths>
</key>
<time>
<beats>4</beats>
<beat-type>4</beat-type>
</time>
<clef>
<sign>G</sign>
<line>2</line>
</clef>
</attributes>
<note>
<pitch>
<step>C</step>
<octave>4</octave>
</pitch>
<duration>1</duration>
<type>quarter</type>
<lyric>
<syllabic>single</syllabic>
<text>Ha</text>
</lyric>
</note>
<note>
<pitch>
<step>C</step>
<octave>4</octave>
</pitch>
<duration>1</duration>
<type>quarter</type>
<lyric>
<syllabic>begin</syllabic>
<text>sa</text>
</lyric>
</note>
<note>
<pitch>
<step>A</step>
<octave>3</octave>
</pitch>
<duration>1</duration>
<type>quarter</type>
<lyric>
<syllabic>middle</syllabic>
<text>mba</text>
</lyric>
</note>
<note>
<pitch>
<step>D</step>
<octave>4</octave>
</pitch>
<duration>1</duration>
<type>quarter</type>
<lyric>
<syllabic>end</syllabic>
<text>lö</text>
</lyric>
</note>
</measure>
<measure number="2">
<note>
<pitch>
<step>C</step>
<octave>4</octave>
</pitch>
<duration>1</duration>
<type>quarter</type>
<lyric>
<syllabic>begin</syllabic>
<text>zo</text>
</lyric>
</note>
<note>
<pitch>
<step>B</step>
<octave>3</octave>
</pitch>
<duration>1</duration>
<type>quarter</type>
<lyric>
<syllabic>middle</syllabic>
<text>ma</text>
</lyric>
</note>
<note>
<pitch>
<step>C</step>
<octave>4</octave>
</pitch>
<duration>1</duration>
<type>quarter</type>
<lyric>
<syllabic>middle</syllabic>
<text>si</text>
</lyric>
</note>
<note>
<pitch>
<step>G</step>
<octave>3</octave>
</pitch>
<duration>1</duration>
<type>quarter</type>
<lyric>
<syllabic>end</syllabic>
<text>do,</text>
</lyric>
</note>
</measure>
<measure number="3">
<note>
<pitch>
<step>E</step>
<octave>4</octave>
</pitch>
<duration>2</duration>
<type>half</type>
<lyric>
<syllabic>single</syllabic>
<text>ö</text>
</lyric>
</note>
<note>
<pitch>
<step>C</step>
<octave>4</octave>
</pitch>
<duration>2</duration>
<type>half</type>
<lyric>
<syllabic>begin</syllabic>
<text>gu</text>
</lyric>
</note>
</measure>
<measure number="4">
<note>
<pitch>
<step>C</step>
<octave>4</octave>
</pitch>
<duration>1</duration>
<type>quarter</type>
<lyric>
<syllabic>middle</syllabic>
<text>ma'</text>
</lyric>
</note>
<note>
<pitch>
<step>C</step>
<octave>4</octave>
</pitch>
<duration>1</duration>
<type>quarter</type>
<lyric>
<syllabic>middle</syllabic>
<text>ö</text>
</lyric>
</note>
<note>
<pitch>
<step>A</step>
<octave>3</octave>
</pitch>
<duration>1</duration>
<type>quarter</type>
<lyric>
<syllabic>middle</syllabic>
<text>ma'</text>
</lyric>
</note>
<note>
<pitch>
<step>F</step>
<octave>4</octave>
</pitch>
<duration>1</duration>
<type>quarter</type>
<lyric>
<syllabic>end</syllabic>
<text>ö</text>
</lyric>
</note>
</measure>
<measure number="5">
<note>
<pitch>
<step>E</step>
<octave>4</octave>
</pitch>
<duration>1</duration>
<type>quarter</type>
<lyric>
<syllabic>single</syllabic>
<text>khö</text>
</lyric>
</note>
<note>
<pitch>
<step>D</step>
<octave>4</octave>
</pitch>
<duration>1</duration>
<type>quarter</type>
</note>
<note>
<pitch>
<step>C</step>
<octave>4</octave>
</pitch>
<duration>2</duration>
<type>half</type>
</note>
</measure>
<measure number="6">
<note>
<pitch>
<step>C</step>
<octave>4</octave>
</pitch>
<duration>1</duration>
<type>quarter</type>
<lyric>
<syllabic>begin</syllabic>
<text>Sö</text>
</lyric>
</note>
<note>
<pitch>
<step>C</step>
<octave>4</octave>
</pitch>
<duration>1</duration>
<type>quarter</type>
<lyric>
<syllabic>end</syllabic>
<text>khi</text>
</lyric>
</note>
<note>
<pitch>
<step>A</step>
<octave>3</octave>
</pitch>
<duration>1</duration>
<type>quarter</type>
<lyric>
<syllabic>begin</syllabic>
<text>la</text>
</lyric>
</note>
<note>
<pitch>
<step>D</step>
<octave>4</octave>
</pitch>
<duration>1</duration>
<type>quarter</type>
<lyric>
<syllabic>middle</syllabic>
<text>la</text>
</lyric>
</note>
</measure>
<measure number="7">
<note>
<pitch>
<step>C</step>
<octave>4</octave>
</pitch>
<duration>1</duration>
<type>quarter</type>
<lyric>
<syllabic>end</syllabic>
<text>da</text>
</lyric>
</note>
<note>
<pitch>
<step>B</step>
<octave>3</octave>
</pitch>
<duration>1</duration>
<type>quarter</type>
<lyric>
<syllabic>single</syllabic>
<text>ba</text>
</lyric>
</note>
<note>
<pitch>
<step>C</step>
<octave>4</octave>
</pitch>
<duration>1</duration>
<type>quarter</type>
<lyric>
<syllabic>begin</syllabic>
<text>gu</text>
</lyric>
</note>
<note>
<pitch>
<step>G</step>
<octave>3</octave>
</pitch>
<duration>1</duration>
<type>quarter</type>
<lyric>
<syllabic>middle</syllabic>
<text>li</text>
</lyric>
</note>
</measure>
<measure number="8">
<note>
<pitch>
<step>E</step>
<octave>4</octave>
</pitch>
<duration>2</duration>
<type>half</type>
<lyric>
<syllabic>middle</syllabic>
<text>da</text>
</lyric>
</note>
<note>
<pitch>
<step>C</step>
<octave>4</octave>
</pitch>
<duration>2</duration>
<type>half</type>
<lyric>
<syllabic>end</syllabic>
<text>nö,</text>
</lyric>
</note>
</measure>
<measure number="9">
<note>
<pitch>
<step>C</step>
<octave>4</octave>
</pitch>
<duration>1</duration>
<type>quarter</type>
<lyric>
<syllabic>begin</syllabic>
<text>na</text>
</lyric>
</note>
<note>
<pitch>
<step>C</step>
<octave>4</octave>
</pitch>
<duration>1</duration>
<type>quarter</type>
<lyric>
<syllabic>end</syllabic>
<text>lö</text>
</lyric>
</note>
<note>
<pitch>
<step>A</step>
<octave>3</octave>
</pitch>
<duration>1</duration>
<type>quarter</type>
<lyric>
<syllabic>begin</syllabic>
<text>ae</text>
</lyric>
</note>
<note>
<pitch>
<step>F</step>
<octave>4</octave>
</pitch>
<duration>1</duration>
<type>quarter</type>
<lyric>
<syllabic>end</syllabic>
<text>fa</text>
</lyric>
</note>
</measure>
<measure number="10">
<note>
<pitch>
<step>E</step>
<octave>4</octave>
</pitch>
<duration>1</duration>
<type>quarter</type>
<lyric>
<syllabic>begin</syllabic>
<text>khö</text>
</lyric>
</note>
<note>
<pitch>
<step>D</step>
<octave>4</octave>
</pitch>
<duration>1</duration>
<type>quarter</type>
<lyric>
<syllabic>middle</syllabic>
<text>da</text>
</lyric>
</note>
<note>
<pitch>
<step>C</step>
<octave>4</octave>
</pitch>
<duration>2</duration>
<type>half</type>
<lyric>
<syllabic>end</syllabic>
<text>ö</text>
</lyric>
</note>
</measure>
<measure number="11">
<note>
<pitch>
<step>B</step>
<octave>3</octave>
</pitch>
<duration>1</duration>
<type>quarter</type>
<lyric>
<syllabic>begin</syllabic>
<text>Na</text>
</lyric>
</note>
<note>
<pitch>
<step>C</step>
<octave>4</octave>
</pitch>
<duration>1</duration>
<type>quarter</type>
<lyric>
<syllabic>end</syllabic>
<text>lö</text>
</lyric>
</note>
<note>
<pitch>
<step>D</step>
<octave>4</octave>
</pitch>
<duration>1</duration>
<type>quarter</type>
<lyric>
<syllabic>begin</syllabic>
<text>ae</text>
</lyric>
</note>
<note>
<pitch>
<step>G</step>
<octave>4</octave>
</pitch>
<duration>1</duration>
<type>quarter</type>
<lyric>
<syllabic>end</syllabic>
<text>fa</text>
</lyric>
</note>
</measure>
<measure number="12">
<note>
<pitch>
<step>G</step>
<octave>4</octave>
</pitch>
<duration>1</duration>
<type>quarter</type>
<lyric>
<syllabic>begin</syllabic>
<text>hö</text>
</lyric>
</note>
<note>
<pitch>
<step>F</step>
<octave>4</octave>
</pitch>
<duration>1</duration>
<type>quarter</type>
<lyric>
<syllabic>middle</syllabic>
<text>rö</text>
</lyric>
</note>
<note>
<pitch>
<step>F</step>
<octave>4</octave>
</pitch>
<duration>1</duration>
<type>quarter</type>
<lyric>
<syllabic>end</syllabic>
<text>da</text>
</lyric>
</note>
<note>
<pitch>
<step>E</step>
<octave>4</octave>
</pitch>
<duration>1</duration>
<type>quarter</type>
<lyric>
<syllabic>begin</syllabic>
<text>wa</text>
</lyric>
</note>
</measure>
<measure number="13">
<note>
<pitch>
<step>E</step>
<octave>4</octave>
</pitch>
<duration>2</duration>
<type>half</type>
<lyric>
<syllabic>middle</syllabic>
<text>mai</text>
</lyric>
</note>
<note>
<pitch>
<step>D</step>
<octave>4</octave>
</pitch>
<duration>2</duration>
<type>half</type>
<notations>
<articulations>
<breath-mark/>
</articulations>
</notations>
<lyric>
<syllabic>end</syllabic>
<text>gi</text>
</lyric>
</note>
</measure>
<measure number="14">
<note>
<pitch>
<step>B</step>
<octave>3</octave>
</pitch>
<duration>1</duration>
<type>quarter</type>
<lyric>
<syllabic>begin</syllabic>
<text>si</text>
</lyric>
</note>
<note>
<pitch>
<step>C</step>
<octave>4</octave>
</pitch>
<duration>1</duration>
<type>quarter</type>
<lyric>
<syllabic>middle</syllabic>
<text>no</text>
</lyric>
</note>
<note>
<pitch>
<step>D</step>
<octave>4</octave>
</pitch>
<duration>1</duration>
<type>quarter</type>
<lyric>
<syllabic>middle</syllabic>
<text>ma</text>
</lyric>
</note>
<note>
<pitch>
<step>G</step>
<octave>4</octave>
</pitch>
<duration>1</duration>
<type>quarter</type>
<lyric>
<syllabic>end</syllabic>
<text>te</text>
</lyric>
</note>
</measure>
<measure number="15">
<note>
<pitch>
<step>G</step>
<octave>4</octave>
</pitch>
<duration>1</duration>
<type>quarter</type>
<lyric>
<syllabic>begin</syllabic>
<text>fö</text>
</lyric>
</note>
<note>
<pitch>
<step>F</step>
<octave>4</octave>
</pitch>
<duration>1</duration>
<type>quarter</type>
<lyric>
<syllabic>middle</syllabic>
<text>na</text>
</lyric>
</note>
<note>
<pitch>
<step>F</step>
<octave>4</octave>
</pitch>
<duration>1</duration>
<type>quarter</type>
<lyric>
<syllabic>middle</syllabic>
<text>da</text>
</lyric>
</note>
<note>
<pitch>
<step>E</step>
<octave>4</octave>
</pitch>
<duration>1</duration>
<type>quarter</type>
<lyric>
<syllabic>end</syllabic>
<text>sa</text>
</lyric>
</note>
</measure>
<measure number="16">
<note>
<pitch>
<step>E</step>
<octave>4</octave>
</pitch>
<duration>2</duration>
<type>half</type>
<lyric>
<syllabic>begin</syllabic>
<text>la</text>
</lyric>
</note>
<note>
<pitch>
<step>D</step>
<octave>4</octave>
</pitch>
<duration>2</duration>
<type>half</type>
<notations>
<articulations>
<breath-mark/>
</articulations>
</notations>
<lyric>
<syllabic>end</syllabic>
<text>hi</text>
</lyric>
</note>
</measure>
<measure number="17">
<note>
<pitch>
<step>C</step>
<octave>4</octave>
</pitch>
<duration>1</duration>
<type>quarter</type>
<lyric>
<syllabic>begin</syllabic>
<text>sae</text>
</lyric>
</note>
<note>
<pitch>
<step>C</step>
<octave>4</octave>
</pitch>
<duration>1</duration>
<type>quarter</type>
<lyric>
<syllabic>end</syllabic>
<text>tu</text>
</lyric>
</note>
<note>
<pitch>
<step>A</step>
<octave>3</octave>
</pitch>
<duration>1</duration>
<type>quarter</type>
<lyric>
<syllabic>begin</syllabic>
<text>no</text>
</lyric>
</note>
<note>
<pitch>
<step>F</step>
<octave>4</octave>
</pitch>
<duration>1</duration>
<type>quarter</type>
<lyric>
<syllabic>end</syllabic>
<text>so</text>
</lyric>
</note>
</measure>
<measure number="18">
<note>
<pitch>
<step>E</step>
<octave>4</octave>
</pitch>
<duration>1</duration>
<type>quarter</type>
<lyric>
<syllabic>begin</syllabic>
<text>ba</text>
</lyric>
</note>
<note>
<pitch>
<step>D</step>
<octave>4</octave>
</pitch>
<duration>1</duration>
<type>quarter</type>
<lyric>
<syllabic>middle</syllabic>
<text>rö</text>
</lyric>
</note>
<note>
<pitch>
<step>C</step>
<octave>4</octave>
</pitch>
<duration>2</duration>
<type>half</type>
<notations>
<articulations>
<breath-mark/>
</articulations>
</notations>
<lyric>
<syllabic>end</syllabic>
<text>fa</text>
</lyric>
</note>
</measure>
<measure number="19">
<note>
<pitch>
<step>C</step>
<octave>4</octave>
</pitch>
<duration>1</duration>
<type>quarter</type>
<lyric>
<syllabic>begin</syllabic>
<text>ba</text>
</lyric>
</note>
<note>
<pitch>
<step>C</step>
<octave>4</octave>
</pitch>
<duration>1</duration>
<type>quarter</type>
<lyric>
<syllabic>end</syllabic>
<text>wo</text>
</lyric>
</note>
<note>
<pitch>
<step>A</step>
<octave>3</octave>
</pitch>
<duration>1</duration>
<type>quarter</type>
<lyric>
<syllabic>begin</syllabic>
<text>lo'</text>
</lyric>
</note>
<note>
<pitch>
<step>F</step>
<octave>4</octave>
</pitch>
<duration>1</duration>
<type>quarter</type>
<lyric>
<syllabic>end</syllabic>
<text>ö</text>
</lyric>
</note>
</measure>
<measure number="20">
<note>
<pitch>
<step>E</step>
<octave>4</octave>
</pitch>
<duration>1</duration>
<type>quarter</type>
<lyric>
<syllabic>begin</syllabic>
<text>li</text>
</lyric>
</note>
<note>
<pitch>
<step>D</step>
<octave>4</octave>
</pitch>
<duration>1</duration>
<type>quarter</type>
<lyric>
<syllabic>middle</syllabic>
<text>Na</text>
</lyric>
</note>
<note>
<pitch>
<step>C</step>
<octave>4</octave>
</pitch>
<duration>2</duration>
<type>half</type>
<lyric>
<syllabic>end</syllabic>
<text>ma</text>
</lyric>
</note>
<barline location="right">
<bar-style>light-heavy</bar-style>
</barline>
</measure>
</part>
</score-partwise>